<svg xmlns="http://www.w3.org/2000/svg" width="18" height="18" viewBox="0 0 16 16"><path data-name="Trazado 159" d="M14.001 12.099a.991.991 0 0 1-.3.728l-.865.878a1.036 1.036 0 0 1-.736.3.991.991 0 0 1-.728-.3l-2.936-2.948a.961.961 0 0 1-.307-.728 1.075 1.075 0 0 1 .348-.776L6.406 7.182 5.387 8.205a.374.374 0 0 1-.275.113.374.374 0 0 1-.275-.113l.1.1a.938.938 0 0 1 .1.105.951.951 0 0 0 .081.093.4.4 0 0 1 .081.109q.016.04.049.109a.554.554 0 0 1 .044.133.794.794 0 0 1 .012.146.785.785 0 0 1-.226.55q-.024.024-.133.146t-.154.166q-.044.044-.15.133a.96.96 0 0 1-.178.125 1.5 1.5 0 0 1-.178.073.639.639 0 0 1-.21.036.749.749 0 0 1-.55-.226l-3.3-3.3a.749.749 0 0 1-.226-.55.639.639 0 0 1 .036-.21 1.5 1.5 0 0 1 .073-.178.96.96 0 0 1 .125-.178q.089-.105.133-.15t.166-.154l.146-.133a.785.785 0 0 1 .55-.226.794.794 0 0 1 .146.012.554.554 0 0 1 .133.044l.109.049a.4.4 0 0 1 .109.081.951.951 0 0 0 .093.081.938.938 0 0 1 .105.1l.1.1a.374.374 0 0 1-.113-.275.374.374 0 0 1 .113-.275l2.815-2.815a.374.374 0 0 1 .275-.113.374.374 0 0 1 .275.113l-.1-.1a.938.938 0 0 1-.1-.105.951.951 0 0 0-.081-.093.4.4 0 0 1-.081-.109q-.016-.04-.049-.109a.554.554 0 0 1-.044-.133.794.794 0 0 1-.012-.146.785.785 0 0 1 .226-.55q.024-.024.133-.146t.154-.166q.044-.044.15-.133a.96.96 0 0 1 .178-.125A1.5 1.5 0 0 1 5.94.038a.639.639 0 0 1 .21-.036.749.749 0 0 1 .55.226l3.3 3.3a.749.749 0 0 1 .226.55.639.639 0 0 1-.036.21 1.5 1.5 0 0 1-.073.178.96.96 0 0 1-.125.178q-.089.105-.133.15t-.166.154l-.146.133a.785.785 0 0 1-.55.226.794.794 0 0 1-.146-.012.554.554 0 0 1-.133-.044l-.109-.049a.4.4 0 0 1-.109-.081.951.951 0 0 0-.093-.081.938.938 0 0 1-.105-.1l-.1-.1a.374.374 0 0 1 .113.275.374.374 0 0 1-.113.275L7.183 6.405l2.071 2.071a1.075 1.075 0 0 1 .776-.348 1.036 1.036 0 0 1 .736.3l2.936 2.936a1.036 1.036 0 0 1 .299.735Z" fill="#666"/></svg>
