<svg viewBox="0 0 379 125" fill="none" xmlns="http://www.w3.org/2000/svg">
	<path
		d="M344.065 89.4365L352.103 55.4962L359.939 89.4365H344.065ZM363.693 106.104C364.6 110.022 365.054 112.895 365.054 114.709C365.054 116.07 364.726 117.229 364.084 118.174C363.441 119.131 362.194 119.685 360.355 119.849V122.142H378.585V119.849C376.695 119.648 375.221 118.703 374.175 117.027C373.117 115.352 371.945 111.711 370.647 106.092L354.572 36.2205H353.375L337.123 105.348C335.712 111.421 334.427 115.44 333.268 117.43C332.701 118.426 331.454 119.219 329.526 119.849V122.142H344.077V119.849C341.847 119.559 340.398 118.93 339.731 117.959C339.063 116.989 338.723 115.868 338.723 114.583C338.723 112.97 339.113 110.539 339.882 107.276L343.019 94.0224H360.909L363.706 106.104H363.693ZM277.671 40.441C279.006 40.441 280.014 40.63 280.669 40.9953C282.005 41.7764 283.025 42.6205 283.718 43.5402C284.411 44.4473 285.431 46.3245 286.767 49.1717V107.591C286.767 112.303 286.515 115.314 286.023 116.637C285.205 118.778 283.806 119.862 281.828 119.862H280.228V122.155H296.304V119.862H294.666C292.877 119.862 291.542 118.993 290.685 117.267C290.068 115.982 289.765 112.769 289.765 107.604V55.8741L320.228 123.515H321.45V52.7119C321.45 48.0001 321.702 44.989 322.194 43.6662C323.013 41.5245 324.398 40.441 326.351 40.441H327.989V38.1481H311.913V40.441H313.513C315.328 40.441 316.663 41.3103 317.494 43.0489C318.124 44.3339 318.452 47.5465 318.452 52.7119V101.153L290.206 38.1607H277.671V40.4536V40.441ZM263.22 42.7339C265.513 42.7339 267.113 43.0489 268.02 43.6662C269.154 44.5355 270.011 45.7953 270.59 47.4457C271.17 49.0961 271.699 52.1324 272.178 56.5544H273.501L272.984 38.1607H237.381V40.4536H239.018C240.921 40.4536 242.282 41.2851 243.1 42.9355C243.693 44.1701 243.982 47.4583 243.982 52.7875V107.364C243.982 111.459 243.856 114.155 243.592 115.478C243.327 116.8 242.836 117.796 242.105 118.451C241.122 119.396 240.089 119.874 239.006 119.874H237.368V122.167H272.971L276.953 101.103H275.592C274.118 106.268 272.669 110.123 271.271 112.681C270.175 114.621 269.041 115.919 267.869 116.586C266.685 117.254 264.795 117.582 262.175 117.582H254.338C253.066 117.582 252.197 117.342 251.743 116.876C251.289 116.397 250.974 115.755 250.785 114.948C250.596 114.142 250.508 111.887 250.508 108.17V80.479H260.663C262.59 80.479 264.026 80.8947 264.959 81.7136C265.891 82.5451 266.559 83.679 266.975 85.1278C267.29 86.2869 267.604 88.9074 267.932 92.9893H269.192V63.7482H267.932C267.793 68.5356 267.138 71.8868 265.954 73.7892C265.072 75.238 263.308 75.9561 260.675 75.9561H250.521V42.7591H263.195L263.22 42.7339ZM203.768 44.0315C206.01 43.2504 207.799 42.8599 209.122 42.8599C212.096 42.8599 214.489 44.4977 216.291 47.7859C218.092 51.0615 218.999 55.3324 218.999 60.5734C218.999 65.8143 217.878 70.3624 215.636 73.827C213.406 77.2916 210.08 79.0301 205.67 79.0301C205.469 79.0301 205.204 79.0301 204.889 79.0049C204.574 78.9798 204.196 78.9672 203.768 78.9672V44.0315ZM236.574 119.849C234.055 119.358 232.014 118.199 230.439 116.385C228.877 114.57 227 110.892 224.82 105.361L215.283 81.2601C219.163 79.6853 222.036 77.0018 223.888 73.2096C225.74 69.4049 226.659 64.9324 226.659 59.7671C226.659 54.9292 225.853 50.7717 224.228 47.282C222.603 43.7922 220.625 41.3985 218.294 40.1008C215.963 38.8032 212.348 38.1481 207.447 38.1481H190.615V40.441H192.354C194.105 40.441 195.415 41.3481 196.31 43.1623C196.94 44.4473 197.267 47.7229 197.267 53.0143V107.276C197.267 112.063 197.028 115.1 196.549 116.385C195.705 118.703 194.306 119.849 192.354 119.849H190.615V122.142H210.407V119.849H208.606C206.88 119.849 205.582 118.942 204.725 117.128C204.095 115.843 203.768 112.567 203.768 107.276V82.8727C204.133 82.9105 204.486 82.9483 204.826 82.9609C205.166 82.9861 205.481 82.9987 205.784 82.9987C206.514 82.9987 207.459 82.9609 208.606 82.8727L224.24 122.142H236.574V119.849ZM174.262 49.1717C177.374 56.2269 178.924 66.9482 178.924 81.3231C178.924 94.5767 177.513 104.29 174.678 110.438C171.856 116.599 168.265 119.673 163.932 119.673C159.862 119.673 156.599 116.863 154.117 111.244C150.892 103.849 149.279 93.3042 149.279 79.5845C149.279 65.8647 150.829 56.0505 153.941 49.1087C156.435 43.5402 159.761 40.7433 163.894 40.7433C168.303 40.7433 171.755 43.5528 174.25 49.1717M148.977 47.1938C143.975 55.6222 141.481 66.4947 141.481 79.8365C141.481 93.1783 143.648 103.522 147.969 111.736C152.303 119.95 157.645 124.057 163.995 124.057C170.344 124.057 175.648 119.849 180.083 111.421C184.505 102.992 186.722 92.3971 186.722 79.6475C186.722 66.8978 184.53 56.9198 180.133 48.6426C175.736 40.3654 170.546 36.2205 164.549 36.2205C158.552 36.2205 153.311 39.874 148.977 47.1812M130.949 36.2205C130.722 38.1607 130.42 39.4457 130.042 40.0882C129.664 40.7307 129.185 41.0457 128.593 41.0457C128.064 41.0457 127.169 40.5292 125.897 39.4961C123.15 37.304 120.542 36.2079 118.098 36.2079C114.167 36.2079 110.93 38.3874 108.385 42.7465C105.84 47.1056 104.567 52.2962 104.567 58.3308C104.567 61.7954 104.996 64.9828 105.865 67.8679C106.722 70.7655 107.994 73.3986 109.67 75.7923C111.333 78.1861 114.155 81.3987 118.098 85.4302C122.054 89.4617 124.473 92.0948 125.355 93.3294C126.678 95.1436 127.648 97.109 128.265 99.2129C128.895 101.317 129.197 103.408 129.197 105.474C129.197 109.191 128.379 112.416 126.728 115.137C125.078 117.859 122.835 119.219 120.001 119.219C117.544 119.219 115.289 118.224 113.235 116.246C111.182 114.268 109.657 111.774 108.649 108.788C107.654 105.789 106.86 101.279 106.268 95.257H105.008V124.057H106.268C106.432 122.117 106.671 120.832 106.999 120.215C107.327 119.597 107.78 119.282 108.347 119.282C108.914 119.282 110.338 119.937 112.555 121.235C114.772 122.533 116.234 123.289 116.927 123.49C118.111 123.856 119.371 124.045 120.706 124.045C124.977 124.045 128.467 121.739 131.188 117.141C133.897 112.542 135.257 107.049 135.257 100.7C135.257 97.3484 134.829 94.1609 133.985 91.0995C133.128 88.0381 131.919 85.3924 130.344 83.1373C128.769 80.8821 125.821 77.6569 121.5 73.4364C116.208 68.271 112.857 64.1513 111.446 61.0521C110.464 58.9482 109.985 56.6174 109.985 54.0599C109.985 50.7087 110.753 47.7355 112.303 45.115C113.853 42.4945 115.805 41.1843 118.161 41.1843C120.253 41.1843 122.268 42.1544 124.221 44.0945C126.174 46.0347 127.686 48.6552 128.731 51.956C129.79 55.2568 130.52 59.7041 130.923 65.2726H132.183V36.2205H130.923H130.949ZM48.9073 40.4284C50.2428 40.4284 51.2506 40.6174 51.9058 40.9827C53.2412 41.7638 54.2617 42.6079 54.9546 43.5276C55.6475 44.4347 56.668 46.3119 58.0034 49.1591V107.578C58.0034 112.29 57.7515 115.301 57.2601 116.624C56.4412 118.766 55.0428 119.849 53.0648 119.849H51.4648V122.142H67.5405V119.849H65.9027C64.1137 119.849 62.7783 118.98 61.9216 117.254C61.3042 115.969 61.0019 112.756 61.0019 107.591V55.8615L91.465 123.503H92.6871V52.6993C92.6871 47.9875 92.939 44.9764 93.443 43.6536C94.2619 41.5118 95.6477 40.4284 97.6005 40.4284H99.2383V38.1355H83.15V40.4284H84.75C86.5642 40.4284 87.8996 41.2977 88.7311 43.0363C89.3611 44.3213 89.6886 47.5339 89.6886 52.6993V101.14L61.4428 38.1481H48.9073V40.441V40.4284ZM14.5387 89.4239L22.5765 55.4836L30.4127 89.4239H14.5387ZM34.1671 106.092C35.0742 110.01 35.5277 112.882 35.5277 114.696C35.5277 116.057 35.2002 117.216 34.5577 118.161C33.9151 119.119 32.6679 119.673 30.8285 119.837V122.13H49.0585V119.837C47.1687 119.635 45.7073 118.69 44.649 117.015C43.5908 115.339 42.4191 111.698 41.1215 106.079L25.0458 36.2079H23.8489L7.59689 105.336C6.18586 111.408 4.90081 115.427 3.74175 117.418C3.17482 118.413 1.92757 119.207 0 119.837V122.13H14.5513V119.837C12.3213 119.547 10.8725 118.917 10.2048 117.947C9.53705 116.977 9.19689 115.856 9.19689 114.57C9.19689 112.958 9.58745 110.526 10.356 107.263L13.493 94.0098H31.3828L34.1797 106.092H34.1671Z"
		fill="#0F0E0D" />
	<path
		d="M224.189 6.31184C224.504 6.31184 224.743 6.31184 224.907 6.31184C226.495 6.31184 227.805 6.6394 228.838 7.28193C229.884 7.93705 230.4 8.78115 230.4 9.81422C230.4 10.3056 230.224 10.7339 229.884 11.0867C229.543 11.4394 229.128 11.6158 228.649 11.6158C228.422 11.6158 228.208 11.578 228.032 11.5024C227.767 11.4142 227.465 11.2379 227.099 10.9859C226.532 10.5827 226.117 10.3308 225.89 10.2426C225.65 10.1418 225.424 10.104 225.197 10.104C224.945 10.104 224.718 10.2048 224.529 10.3938C224.34 10.5827 224.239 10.8095 224.239 11.0615C224.239 11.389 224.416 11.6914 224.794 11.9434C225.323 12.3087 226.066 12.4977 227.049 12.4977C227.956 12.4977 228.788 12.3087 229.556 11.9308C230.312 11.5528 230.904 11.0111 231.32 10.3056C231.736 9.60005 231.95 8.88193 231.95 8.13862C231.95 6.99216 231.496 6.02208 230.602 5.25357C229.506 4.32128 227.943 3.80474 225.902 3.72915L226.356 2.5323H231.08L231.975 0.25197H226.356L224.202 6.29924L224.189 6.31184ZM219.313 2.99844V7.73547H215.824L219.313 2.99844ZM214.967 9.56225H219.313V12.2457H221.745V9.56225H222.841V7.73547H221.745V0.0125985H220.661L214.967 7.73547V9.56225ZM211.502 10.167C211.502 10.7213 211.351 11.1497 211.061 11.4646C210.772 11.7796 210.406 11.9434 209.978 11.9434C209.701 11.9434 209.436 11.8552 209.172 11.6914C208.907 11.5276 208.706 11.263 208.567 10.8851C208.428 10.5071 208.353 10.041 208.353 9.48666C208.353 9.05831 208.403 8.64256 208.491 8.25201C208.592 7.86146 208.693 7.55909 208.806 7.34492C208.882 7.20634 209.008 7.05515 209.197 6.89137C210.734 7.93705 211.502 9.02052 211.502 10.167ZM209.121 3.43939C208.819 2.97324 208.655 2.5323 208.655 2.10395C208.655 1.6756 208.794 1.32284 209.071 1.03308C209.348 0.743311 209.688 0.604727 210.079 0.604727C210.52 0.604727 210.86 0.755909 211.099 1.07087C211.427 1.47402 211.591 2.06615 211.591 2.83466C211.591 3.27561 211.54 3.66616 211.427 4.03152C211.313 4.39687 211.162 4.72443 210.935 5.0268C210.016 4.43467 209.411 3.90553 209.096 3.43939M213.153 4.30868C213.48 3.88033 213.657 3.37639 213.657 2.80946C213.657 2.05355 213.354 1.41103 212.737 0.869296C212.12 0.327561 211.238 0.0629924 210.091 0.0629924C208.945 0.0629924 207.975 0.365356 207.294 0.982682C206.614 1.60001 206.274 2.30552 206.274 3.09923C206.274 3.70396 206.413 4.24569 206.677 4.69924C206.942 5.15278 207.559 5.75751 208.504 6.47562C207.635 6.87877 207.005 7.31972 206.639 7.79846C206.261 8.2898 206.072 8.84414 206.072 9.48666C206.072 10.3308 206.4 11.0489 207.043 11.6284C207.685 12.2079 208.605 12.4977 209.789 12.4977C211.036 12.4977 212.032 12.1701 212.762 11.4898C213.493 10.8221 213.858 10.0032 213.858 9.03312C213.858 8.3402 213.695 7.73547 213.367 7.19374C213.039 6.6646 212.46 6.08507 211.616 5.46774C212.321 5.11499 212.838 4.72443 213.165 4.29608M201.991 0L197.568 2.01576L197.732 2.33072C198.161 2.14174 198.526 2.05355 198.828 2.05355C199.017 2.05355 199.181 2.10395 199.332 2.20474C199.483 2.30552 199.572 2.41891 199.635 2.55749C199.685 2.69608 199.71 3.04883 199.71 3.60317V9.82682C199.71 10.5827 199.672 11.0615 199.597 11.2756C199.521 11.4772 199.37 11.641 199.156 11.767C198.942 11.8804 198.576 11.9434 198.06 11.9434H197.745V12.2709H204.069V11.9434H203.792C203.339 11.9434 203.011 11.8804 202.797 11.7418C202.595 11.6158 202.457 11.452 202.394 11.2379C202.331 11.0363 202.293 10.5701 202.293 9.82682V0.0125985H202.003L201.991 0ZM186.835 7.21893V6.90397C186.835 5.98428 187.011 5.26617 187.364 4.74963C187.553 4.44727 187.805 4.29608 188.12 4.29608C188.321 4.29608 188.485 4.34648 188.611 4.45986C188.825 4.64884 188.989 4.91341 189.09 5.26617C189.19 5.61893 189.241 6.27405 189.241 7.21893H186.835ZM190.425 4.74963C189.808 4.06931 189.077 3.71655 188.246 3.71655C187.238 3.71655 186.368 4.11971 185.625 4.93861C184.882 5.75751 184.504 6.85358 184.504 8.23941C184.504 9.36068 184.756 10.3056 185.26 11.0741C185.89 12.019 186.822 12.4851 188.044 12.4851C188.762 12.4851 189.379 12.2961 189.934 11.9182C190.476 11.5402 190.967 10.8851 191.42 9.978L191.118 9.78903C190.79 10.3056 190.476 10.6583 190.186 10.8599C189.896 11.0615 189.581 11.1623 189.216 11.1623C188.649 11.1623 188.157 10.9229 187.742 10.4315C187.213 9.78903 186.923 8.91973 186.872 7.82366H191.408C191.357 6.47562 191.03 5.45514 190.413 4.76223M179.893 10.2174C179.427 11.0363 178.935 11.4394 178.419 11.4394C178.179 11.4394 178.003 11.3764 177.864 11.2756C177.6 11.0489 177.386 10.6835 177.234 10.1922C177.083 9.68824 177.008 8.91973 177.008 7.87405C177.008 6.92917 177.083 6.22365 177.209 5.75751C177.348 5.30396 177.524 4.9764 177.751 4.78743C177.89 4.67404 178.079 4.61105 178.293 4.61105C178.923 4.61105 179.464 5.0268 179.893 5.8709V10.23V10.2174ZM178.696 0.25197V0.617326C179.086 0.617326 179.351 0.655121 179.49 0.743311C179.628 0.8315 179.742 0.957485 179.805 1.12127C179.855 1.24725 179.88 1.6378 179.88 2.26773V4.76223C179.527 4.38427 179.2 4.10711 178.898 3.95592C178.595 3.80474 178.242 3.72915 177.839 3.72915C177.222 3.72915 176.655 3.90553 176.113 4.27089C175.571 4.62364 175.156 5.16538 174.853 5.8709C174.551 6.57641 174.4 7.37012 174.4 8.26461C174.4 9.37327 174.652 10.3182 175.143 11.0867C175.76 12.0316 176.592 12.4977 177.65 12.4977C178.066 12.4977 178.431 12.4095 178.759 12.2205C179.086 12.0442 179.464 11.6914 179.88 11.1875V12.4977L183.37 11.8174V11.5276C183.042 11.5024 182.803 11.4394 182.677 11.3512C182.538 11.2504 182.45 11.1119 182.412 10.9229C182.375 10.8095 182.362 10.4189 182.362 9.77643V0.264568H178.696V0.25197ZM172.208 3.74175C172.069 3.94333 171.968 4.06931 171.893 4.11971C171.817 4.1701 171.742 4.1827 171.641 4.1827C171.54 4.1827 171.414 4.1323 171.25 4.04411C170.834 3.82994 170.394 3.71655 169.953 3.71655C169.121 3.71655 168.479 3.96852 168.05 4.48506C167.609 5.0016 167.395 5.58113 167.395 6.21105C167.395 6.79059 167.584 7.33232 167.975 7.81106C168.239 8.13862 168.819 8.61737 169.726 9.24729C170.343 9.66304 170.734 9.978 170.91 10.1796C171.086 10.3812 171.175 10.6331 171.175 10.9103C171.175 11.1623 171.086 11.3638 170.91 11.5402C170.734 11.7166 170.494 11.8048 170.217 11.8048C169.801 11.8048 169.373 11.6158 168.907 11.2253C168.441 10.8347 168.075 10.2552 167.811 9.47406H167.508L167.647 12.4473H167.937C168.063 12.1575 168.227 12.0064 168.428 12.0064C168.491 12.0064 168.617 12.0442 168.794 12.1071C169.449 12.3591 169.978 12.4725 170.381 12.4725C170.885 12.4725 171.351 12.3591 171.767 12.1197C172.183 11.8804 172.51 11.5402 172.737 11.0993C172.964 10.6583 173.077 10.2048 173.077 9.75123C173.077 9.24729 172.938 8.78115 172.661 8.37799C172.384 7.96224 171.817 7.4709 170.948 6.87877C170.079 6.28664 169.549 5.8709 169.36 5.63152C169.247 5.48034 169.184 5.32916 169.184 5.17798C169.184 4.9638 169.272 4.77483 169.436 4.61105C169.612 4.44727 169.814 4.37168 170.053 4.37168C170.431 4.37168 170.822 4.52286 171.212 4.82522C171.603 5.12758 171.968 5.70711 172.334 6.53861H172.636L172.497 3.71655H172.195L172.208 3.74175ZM161.663 7.21893V6.90397C161.663 5.98428 161.839 5.26617 162.192 4.74963C162.381 4.44727 162.633 4.29608 162.948 4.29608C163.149 4.29608 163.313 4.34648 163.439 4.45986C163.653 4.64884 163.817 4.91341 163.918 5.26617C164.019 5.61893 164.069 6.27405 164.069 7.21893H161.663ZM165.253 4.74963C164.636 4.06931 163.905 3.71655 163.074 3.71655C162.066 3.71655 161.197 4.11971 160.453 4.93861C159.71 5.75751 159.332 6.85358 159.332 8.23941C159.332 9.36068 159.584 10.3056 160.088 11.0741C160.718 12.019 161.65 12.4851 162.872 12.4851C163.59 12.4851 164.22 12.2961 164.762 11.9182C165.304 11.5402 165.795 10.8851 166.249 9.978L165.946 9.78903C165.619 10.3056 165.304 10.6583 165.014 10.8599C164.724 11.0615 164.397 11.1623 164.044 11.1623C163.477 11.1623 162.986 10.9229 162.57 10.4315C162.041 9.78903 161.751 8.91973 161.688 7.82366H166.223C166.173 6.47562 165.845 5.45514 165.228 4.76223M152.441 1.19686C153.045 1.46142 153.537 1.94017 153.915 2.67088C154.393 3.59057 154.645 4.82522 154.645 6.36224C154.645 8.27721 154.293 9.68824 153.587 10.5953C153.071 11.263 152.315 11.6032 151.332 11.6032C151.03 11.6032 150.803 11.5528 150.639 11.4646C150.526 11.4016 150.45 11.3134 150.4 11.2127C150.349 11.0993 150.324 10.7969 150.324 10.3056V0.944887C151.307 0.944887 152.012 1.03308 152.441 1.20945M151.118 12.2583C151.886 12.2583 152.453 12.2205 152.819 12.1575C153.638 12.0064 154.318 11.7922 154.885 11.5024C155.452 11.2253 155.943 10.8473 156.371 10.3938C156.8 9.92761 157.153 9.34808 157.43 8.62996C157.694 7.92445 157.833 7.14334 157.833 6.29924C157.833 5.07719 157.556 3.98112 157.001 3.02364C156.447 2.05355 155.641 1.33544 154.57 0.856697C153.701 0.466144 152.541 0.277167 151.105 0.277167H145.738V0.604727H146.141C146.482 0.604727 146.746 0.66772 146.948 0.781106C147.149 0.894493 147.275 1.03308 147.338 1.18426C147.401 1.33544 147.439 1.72599 147.439 2.33072V10.23C147.439 10.8473 147.414 11.2253 147.363 11.3386C147.275 11.5276 147.137 11.6788 146.948 11.7796C146.759 11.893 146.494 11.9434 146.141 11.9434H145.738V12.2709H151.105L151.118 12.2583Z"
		fill="#0F0E0D" />
</svg>
