<?xml version="1.0" encoding="utf-8"?>
<!-- Generator: Adobe Illustrator 24.0.1, SVG Export Plug-In . SVG Version: 6.00 Build 0)  -->
<svg version="1.1" id="Capa_1" xmlns="http://www.w3.org/2000/svg" xmlns:xlink="http://www.w3.org/1999/xlink" x="0px" y="0px"
	 viewBox="0 0 792 315.2" style="enable-background:new 0 0 792 315.2;" xml:space="preserve">
<style type="text/css">
	.st0{fill:#D2A38E;}
</style>
<g>
	<g>
		<path d="M5.3,288.9v22.7H3.5v-22.7H5.3z"/>
		<path d="M35.9,288.9v22.7h-1.5L21,292.1v19.5h-1.7v-22.7h1.5l13.4,19.5v-19.5H35.9z"/>
		<path d="M47.6,288.9h1.9l7.5,20.4l7.5-20.4h1.8l-8.5,22.7H56L47.6,288.9z"/>
		<path d="M91,309.9v1.6H78v-22.7h12.9v1.6H79.7v8.8h10.4v1.6H79.7v9H91z"/>
		<path d="M112.6,302.3h-7.2v9.3h-1.7v-22.7h8.9c3.7,0,6.7,3,6.7,6.7c0,3.1-2.1,5.7-5,6.4l5.6,9.5h-2L112.6,302.3z M105.4,300.6h7.2
			c2.8,0,5-2.3,5-5.1c0-2.8-2.2-5.1-5-5.1h-7.2V300.6z"/>
		<path d="M130.3,306.6l1.5-0.9c0.8,2.7,3.1,4.6,6.8,4.6c3.8,0,5.7-1.9,5.7-4.5c0-2.7-2.4-3.8-5.9-4.9c-3.8-1.2-7.2-2.3-7.2-6.3
			c0-3.7,3-6.1,6.9-6.1c3.7,0,6.2,2.1,7.3,4.8l-1.5,0.8c-0.8-2-2.6-3.9-5.8-3.9c-3.1,0-5.1,1.8-5.1,4.4c0,2.7,2.3,3.6,5.5,4.6
			c4,1.3,7.5,2.6,7.5,6.5c0,3.8-2.9,6.2-7.5,6.2C134.3,311.9,131.3,309.8,130.3,306.6z"/>
		<path d="M157.2,300.2c0-6.5,5.1-11.7,11.7-11.7c6.5,0,11.7,5.2,11.7,11.7c0,6.5-5.2,11.7-11.7,11.7
			C162.3,311.9,157.2,306.7,157.2,300.2z M178.9,300.2c0-5.6-4.4-10-10-10c-5.6,0-10,4.5-10,10c0,5.6,4.4,10,10,10
			C174.5,310.3,178.9,305.8,178.9,300.2z"/>
		<path d="M202.2,302.3H195v9.3h-1.7v-22.7h8.9c3.7,0,6.7,3,6.7,6.7c0,3.1-2.1,5.7-5,6.4l5.6,9.5h-2L202.2,302.3z M195,300.6h7.2
			c2.8,0,5-2.3,5-5.1c0-2.8-2.2-5.1-5-5.1H195V300.6z"/>
		<path d="M246.2,302.2v9.3h-1.7v-9.3l-8.3-13.3h1.9l7.2,11.7l7.2-11.7h1.9L246.2,302.2z"/>
		<path d="M296.1,309.9v1.6H283v-22.7h12.9v1.6h-11.2v8.8h10.4v1.6h-10.4v9H296.1z"/>
		<path d="M321.8,311.6l-6.5-10.1l-6.5,10.1h-2l7.5-11.7l-7.1-11h2l6.2,9.5l6.1-9.5h2l-7.1,11l7.5,11.7H321.8z"/>
		<path d="M350.5,295.9c0,4-3,7-7.1,7h-6v8.6h-1.7v-22.7h7.7C347.5,288.9,350.5,291.9,350.5,295.9z M348.8,295.9
			c0-3.1-2.2-5.4-5.3-5.4h-6v10.8h6C346.5,301.3,348.8,299,348.8,295.9z"/>
		<path d="M376.2,309.9v1.6h-13.1v-22.7H376v1.6h-11.2v8.8h10.4v1.6h-10.4v9H376.2z"/>
		<path d="M397.7,302.3h-7.2v9.3h-1.7v-22.7h8.9c3.7,0,6.7,3,6.7,6.7c0,3.1-2.1,5.7-5,6.4l5.6,9.5h-2L397.7,302.3z M390.5,300.6h7.2
			c2.8,0,5-2.3,5-5.1c0-2.8-2.2-5.1-5-5.1h-7.2V300.6z"/>
		<path d="M430.5,290.5h-7.1v21.1h-1.8v-21.1h-7.1v-1.6h16V290.5z"/>
		<path d="M439.9,300.2c0-6.5,5.1-11.7,11.7-11.7s11.7,5.2,11.7,11.7c0,6.5-5.1,11.7-11.7,11.7S439.9,306.7,439.9,300.2z
			 M461.6,300.2c0-5.6-4.4-10-10-10c-5.6,0-10,4.5-10,10c0,5.6,4.4,10,10,10C457.2,310.3,461.6,305.8,461.6,300.2z"/>
		<path d="M494.9,288.9v22.7h-1.7v-22.7H494.9z"/>
		<path d="M525.5,288.9v22.7H524l-13.4-19.5v19.5h-1.7v-22.7h1.5l13.4,19.5v-19.5H525.5z"/>
		<path d="M560.1,311.6h-1.7v-20.1l-8.4,13.9h-0.3l-8.4-13.9v20.1h-1.7v-22.7h2.1l8.1,13.4l8.1-13.4h2.2V311.6z"/>
		<path d="M572.9,300.2c0-6.5,5.2-11.7,11.7-11.7c6.5,0,11.7,5.2,11.7,11.7c0,6.5-5.1,11.7-11.7,11.7
			C578,311.9,572.9,306.7,572.9,300.2z M594.5,300.2c0-5.6-4.4-10-10-10c-5.6,0-10,4.5-10,10c0,5.6,4.4,10,10,10
			C590.2,310.3,594.5,305.8,594.5,300.2z"/>
		<path d="M625,305.4c0,3.4-2.8,6.2-6.2,6.2H609v-22.7h9c3.3,0,6,2.7,6,6c0,2.2-1.2,4-2.9,5C623.4,300.7,625,302.8,625,305.4z
			 M610.7,290.5v8.7h7.3c2.3,0,4.2-1.9,4.2-4.3c0-2.4-1.9-4.3-4.2-4.3H610.7z M623.3,305.4c0-2.5-2-4.6-4.5-4.6h-8.1v9.1h8.1
			C621.2,309.9,623.3,307.9,623.3,305.4z"/>
		<path d="M639.3,288.9v22.7h-1.7v-22.7H639.3z"/>
		<path d="M665.8,309.9v1.6h-12.4v-22.7h1.7v21.1H665.8z"/>
		<path d="M679.5,288.9v22.7h-1.7v-22.7H679.5z"/>
		<path d="M706.6,305.8h-11.4l-2.2,5.8h-1.8l8.8-22.7h1.8l8.8,22.7h-1.8L706.6,305.8z M706,304.2l-5.1-13.2l-5.1,13.2H706z"/>
		<path d="M731.2,302.3H724v9.3h-1.7v-22.7h8.9c3.7,0,6.7,3,6.7,6.7c0,3.1-2.1,5.7-5,6.4l5.6,9.5h-2L731.2,302.3z M724,300.6h7.2
			c2.8,0,5-2.3,5-5.1c0-2.8-2.2-5.1-5-5.1H724V300.6z"/>
		<path d="M752.3,288.9v22.7h-1.7v-22.7H752.3z"/>
		<path d="M765.1,300.2c0-6.5,5.2-11.7,11.7-11.7c6.5,0,11.7,5.2,11.7,11.7c0,6.5-5.1,11.7-11.7,11.7
			C770.2,311.9,765.1,306.7,765.1,300.2z M786.7,300.2c0-5.6-4.4-10-10-10c-5.6,0-10,4.5-10,10c0,5.6,4.4,10,10,10
			C782.4,310.3,786.7,305.8,786.7,300.2z"/>
	</g>
	<g>
		<g>
			<path d="M48.4,226.3v8.5H27.9c-4,0-7.1,0.9-9.3,2.6c-1.2,0.8-2.2,1.8-3.2,3.3c-1.6,2.5-2.3,5-2.3,7.6c0,2.6,0.9,5.2,2.7,7.9
				c1.5,2.1,3.8,3.7,7,4.8c1.2,0.4,2.9,0.6,5.1,0.6h20.5v8.3l-1,0.2H28.8c-5.1,0-8.9-0.6-11.3-1.9c-5.3-2.3-9.1-6.1-11.4-11.4
				c-1.2-2.7-1.8-5.6-1.8-8.6c0-5.2,1.6-9.8,4.9-13.9c1.9-2.1,3.6-3.6,5.3-4.7c3-1.7,5.7-2.7,8.1-3c0.9-0.3,4.2-0.4,10.2-0.4H48.4z"
				/>
			<path d="M59.2,226.3h28.2c5,0,8.9,1.5,11.7,4.5c1.3,1.2,2.1,2.3,2.6,3.4c1.1,2.2,1.6,4.3,1.6,6.4v1.2c0,3.2-1.4,6.3-4.2,9.4
				c-1.8,1.7-3.4,2.8-4.9,3.3c3.7,3.9,5.5,9.1,5.5,15.6H91v-0.7c0-4.8-1.9-8.6-5.8-11.4c-2.2-1.6-5.1-2.3-8.7-2.3H59.2v-8.5h28.7
				c3.1,0,5.3-1.6,6.4-4.7c0.1-0.6,0.2-1.2,0.2-1.6c0-1.7-0.7-3.3-2.2-4.7c-1.2-1-2.6-1.5-4-1.5c0-0.1-0.4-0.1-1.3-0.1h-28V226.3z"
				/>
			<path d="M114.1,226.3h8.8v43.8h-8.8V226.3z"/>
			<path d="M147.8,226.3h29.5v9h-29.8c-2.3,0-3.8,1.1-4.3,3.4v0.6c0,1.4,0.8,2.5,2.3,3.4c0.5,0.2,1,0.3,1.5,0.3h15
				c3.9,0,6.5,0.4,7.9,1.2c3.4,1.5,5.8,3.8,7.1,7c0.7,1.9,1.1,3.8,1.1,5.6c0,4.4-2,8.1-6.1,11.1c-1.2,0.8-2.6,1.4-4.2,1.8
				c-1.2,0.3-3.1,0.4-5.9,0.4h-27.9l0-9h29.9c2.5,0,4.1-1.2,4.8-3.7l0.1-0.8c0-1.7-0.9-3.1-2.6-4c-0.6-0.3-1.4-0.5-2.3-0.5H147
				c-4.4,0-8.1-1.9-11-5.8c-1.3-2.1-1.9-4.3-1.9-6.5v-1.2c0-4.5,2.2-8.1,6.6-10.7C142.4,226.9,144.8,226.3,147.8,226.3z"/>
			<path d="M188.8,226.3h44.1v8.5h-17.6v35.3h-8.9v-35.3h-17.6V226.3z"/>
			<path d="M243.7,226.3h8.8v43.8h-8.8V226.3z"/>
			<path d="M303.2,235c0.9,1.2,1.5,2.2,1.9,3c0.6,1,1.1,2.3,1.6,4c0.6,2,0.9,4.8,0.9,8.3v19.8h-8.8v-20.8c0-7-3.2-11.6-9.5-14
				c-1.4-0.4-2.7-0.6-3.8-0.6c-1.1,0-2.4,0.2-3.8,0.6c-6.3,2.4-9.5,7-9.5,14v20.8h-8.8v-19.8c0-3.5,0.3-6.2,0.9-8.3
				c0.5-1.7,1-3,1.6-4c0.4-0.9,1-1.9,1.9-3c4.7-5.8,10.6-8.7,17.6-8.7C292.6,226.3,298.5,229.2,303.2,235z"/>
			<path d="M342.3,226.2h20.3v43.9h-8.8v-35.3l-7.8,0H344c-4.4,0-6.8,0.2-7.3,0.5c-2.6,0.7-4.8,2.2-6.6,4.5
				c-1.9,2.8-2.9,5.5-2.9,8.3c0,3.4,1.3,6.5,4,9.4c1.8,1.7,3.3,2.7,4.6,3c1.3,0.6,3.5,1,6.6,1h6.1v8.5h-7.3c-5.4,0-10-1.4-13.8-4.3
				c-2.7-2.1-4.5-4.1-5.4-5.8c-2.3-3.6-3.4-7.3-3.4-11.1v-1.3c0-5.3,2-10.1,5.9-14.5c2.4-2.3,4.4-3.8,5.9-4.4
				c1.1-0.6,2.6-1.2,4.5-1.7C336.5,226.5,339,226.2,342.3,226.2z"/>
			<path d="M416.8,234.9c-4,0-7.4,1.8-10.3,5.3c-1.8,2.1-2.6,5.3-2.6,9.5v20.4H395v-15.3c0-7.2,0.1-10.8,0.4-10.8
				c0-0.8,0.5-2.5,1.6-5c1.1-2.3,2.5-4.3,4.3-6.2c2.3-2.2,4.4-3.7,6.3-4.5c2.9-1.4,6.1-2.1,9.4-2.1c3.4,0,6.5,0.7,9.4,2.1
				c1.9,0.7,4,2.2,6.3,4.5c1.8,1.9,3.3,3.9,4.3,6.2c1,2.6,1.6,4.3,1.6,5c0.3,0,0.4,3.6,0.4,10.8v15.3h-8.9v-20.4
				c0-4.2-0.9-7.3-2.6-9.5c-2.9-3.5-6.4-5.3-10.3-5.3H416.8z M412.8,247.5h8.7v22.6h-8.7V247.5z"/>
			<path d="M471.9,226.3h0.3c6.7,0,12.5,2.8,17.3,8.3c3.1,4.1,4.6,8.6,4.6,13.5v0.3c0,6.7-2.8,12.5-8.5,17.2
				c-4.1,3-8.6,4.6-13.5,4.6h-0.3c-6.7,0-12.4-2.7-17.2-8.2c-1.7-2.3-2.8-4.5-3.5-6.4c-0.8-2.4-1.2-4.8-1.2-7.2V248
				c0-6.6,2.7-12.3,8.2-17c3.7-2.6,7.1-4.1,10.1-4.4C469.2,226.4,470.4,226.3,471.9,226.3z M458.7,248.2c0,3.8,1.5,7.2,4.5,10
				c2.7,2.3,5.4,3.4,8.4,3.4h0.9c2.4,0,4.7-0.8,7.2-2.4c2.5-1.8,4.2-4.2,5.1-7.1c0.3-0.8,0.5-2,0.6-3.9c0-3.7-1.5-7-4.4-9.9
				c-2.7-2.4-5.7-3.6-8.9-3.6c-3.8,0-7.2,1.6-10.1,4.7c-1.2,1.6-2,3-2.3,4.1C459,245.2,458.7,246.7,458.7,248.2z"/>
			<path d="M504.9,226.3h28.2c5,0,8.9,1.5,11.7,4.5c1.3,1.2,2.1,2.3,2.6,3.4c1.1,2.2,1.6,4.3,1.6,6.4v1.2c0,3.2-1.4,6.3-4.2,9.4
				c-1.8,1.7-3.4,2.8-4.9,3.3c3.7,3.9,5.5,9.1,5.5,15.6h-8.9v-0.7c0-4.8-1.9-8.6-5.8-11.4c-2.2-1.6-5.1-2.3-8.7-2.3h-17.3v-8.5h28.7
				c3.1,0,5.3-1.6,6.4-4.7c0.1-0.6,0.2-1.2,0.2-1.6c0-1.7-0.7-3.3-2.2-4.7c-1.2-1-2.6-1.5-4-1.5c0-0.1-0.4-0.1-1.3-0.1h-28V226.3z"
				/>
			<path d="M559.8,226.3h8.8v43.8h-8.8V226.3z"/>
			<path d="M601.5,226.3h0.3c6.7,0,12.5,2.8,17.3,8.3c3.1,4.1,4.6,8.6,4.6,13.5v0.3c0,6.7-2.8,12.5-8.5,17.2
				c-4.1,3-8.6,4.6-13.5,4.6h-0.3c-6.7,0-12.4-2.7-17.2-8.2c-1.7-2.3-2.8-4.5-3.5-6.4c-0.8-2.4-1.2-4.8-1.2-7.2V248
				c0-6.6,2.7-12.3,8.2-17c3.7-2.6,7.1-4.1,10.1-4.4C598.8,226.4,600,226.3,601.5,226.3z M588.3,248.2c0,3.8,1.5,7.2,4.5,10
				c2.7,2.3,5.4,3.4,8.4,3.4h0.9c2.4,0,4.7-0.8,7.2-2.4c2.5-1.8,4.2-4.2,5.1-7.1c0.3-0.8,0.5-2,0.6-3.9c0-3.7-1.5-7-4.4-9.9
				c-2.7-2.4-5.7-3.6-8.9-3.6c-3.8,0-7.2,1.6-10.1,4.7c-1.2,1.6-2,3-2.3,4.1C588.6,245.2,588.3,246.7,588.3,248.2z"/>
			<path d="M674.2,235c0.9,1.2,1.5,2.2,1.9,3c0.6,1,1.1,2.3,1.6,4c0.6,2,0.9,4.8,0.9,8.3v19.8h-8.8v-20.8c0-7-3.2-11.6-9.5-14
				c-1.4-0.4-2.7-0.6-3.8-0.6c-1.1,0-2.4,0.2-3.8,0.6c-6.3,2.4-9.5,7-9.5,14v20.8h-8.8v-19.8c0-3.5,0.3-6.2,0.9-8.3
				c0.5-1.7,1-3,1.6-4c0.4-0.9,1-1.9,1.9-3c4.7-5.8,10.6-8.7,17.6-8.7S669.5,229.2,674.2,235z"/>
			<path d="M714.3,226.3h19.2v8.5H713c-3.7,0-6.5,0.7-8.4,2c-2.6,1.4-4.6,4-6,7.9c-0.3,1.3-0.5,2.5-0.5,3.4c0,3.3,1.2,6.4,3.7,9.3
				c1.6,1.6,3.1,2.6,4.6,3.1c1.6,0.7,3.7,1.1,6.4,1.1h20.6v8.5h-19.6c-5,0-8.7-0.6-11.1-1.8c-5.4-2.4-9.3-6.2-11.6-11.6
				c-1.1-2.7-1.7-5.5-1.7-8.6c0-6.5,2.6-12.1,7.8-16.7c3.4-2.6,6.4-4.1,9.2-4.5C707.8,226.5,710.4,226.3,714.3,226.3z M710.5,244
				h22.9v8.4h-22.9V244z"/>
			<path d="M758.3,226.3h29.5v9H758c-2.3,0-3.8,1.1-4.3,3.4v0.6c0,1.4,0.8,2.5,2.3,3.4c0.5,0.2,1,0.3,1.5,0.3h15
				c3.9,0,6.5,0.4,7.9,1.2c3.4,1.5,5.8,3.8,7.1,7c0.7,1.9,1.1,3.8,1.1,5.6c0,4.4-2,8.1-6.1,11.1c-1.2,0.8-2.6,1.4-4.2,1.8
				c-1.2,0.3-3.1,0.4-5.9,0.4h-27.9l0-9h29.9c2.5,0,4.1-1.2,4.8-3.7l0.1-0.8c0-1.7-0.9-3.1-2.6-4c-0.6-0.3-1.4-0.5-2.3-0.5h-16.8
				c-4.4,0-8.1-1.9-11-5.8c-1.3-2.1-1.9-4.3-1.9-6.5v-1.2c0-4.5,2.2-8.1,6.6-10.7C752.9,226.9,755.3,226.3,758.3,226.3z"/>
		</g>
	</g>
	<path d="M495.8,39c-16.4,0-30.6,7.3-42.6,22c-7.3,8.8-10.9,21.8-10.9,39.1v84.4h-36.5v-63.1c0-29.7,0.6-44.5,1.8-44.5
		c0.1-3.2,2.3-10.1,6.5-20.9c4.4-9.3,10.3-17.8,17.9-25.5c9.6-9.2,18.3-15.4,26.2-18.5c12.1-5.7,25-8.6,38.9-8.6
		c13.9,0,26.9,2.9,39,8.6c7.9,3.1,16.6,9.3,26,18.5c7.5,7.7,13.5,16.2,17.9,25.5c4.3,10.7,6.5,17.7,6.7,20.9
		c1.2,0,1.8,14.8,1.8,44.5v63.1h-36.6v-84.4c0-17.3-3.6-30.3-10.8-39.1c-12.1-14.7-26.3-22-42.8-22H495.8z"/>
	<path class="st0" d="M496.9,91L496.9,91c9.9,0,18,8.1,18,18v75.6h-36v-75.6C479,99,487,91,496.9,91z"/>
	<path d="M386.9,3.3v35.2H302c-16.6,0-29.4,3.6-38.2,10.9c-4.9,3.1-9.3,7.6-13.2,13.6c-6.5,10.3-9.7,20.8-9.7,31.4
		c0,10.6,3.7,21.4,11.2,32.6c6,8.8,15.6,15.4,28.8,19.9c4.9,1.6,11.9,2.4,21.1,2.4h84.9v34.5l-4,0.8h-77.1c-21,0-36.6-2.6-46.8-7.8
		c-21.9-9.6-37.6-25.3-47.2-47c-4.9-11.2-7.3-23-7.3-35.6c0-21.5,6.8-40.6,20.4-57.5c7.7-8.6,15-15.1,21.8-19.2
		C258.9,10.2,270,6.1,280,4.9c3.5-1.1,17.5-1.6,42-1.6H386.9z"/>
	<g>
		<rect x="295.7" y="64.3" class="st0" width="21.5" height="21.5"/>
		<rect x="327.6" y="64.3" class="st0" width="21.5" height="21.5"/>
		<rect x="295.7" y="96.1" class="st0" width="21.5" height="21.5"/>
		<rect x="327.6" y="96.1" class="st0" width="21.5" height="21.5"/>
	</g>
</g>
</svg>
