<?xml version="1.0" encoding="utf-8"?>
<!-- Generator: Adobe Illustrator 23.0.2, SVG Export Plug-In . SVG Version: 6.00 Build 0)  -->
<svg version="1.1" id="Capa_1" xmlns="http://www.w3.org/2000/svg" xmlns:xlink="http://www.w3.org/1999/xlink" x="0px" y="0px"
	 viewBox="0 0 250 50" style="enable-background:new 0 0 250 50;" xml:space="preserve">
<style type="text/css">
	.st0{fill:#FFFFFF;}
</style>
<g>
	<path class="st0" d="M245.1,24.7l-5.7-4.1c-1.3-1-2.1-1.9-2.1-3.9l0-5.2c0-2.1,1-3.1,3.1-3.1l0.8,0c2.1,0,3.1,1,3.1,3.1l0,7.6
		l4.6,0l0-7.4c0-5-2.5-7.5-7.5-7.5l-1.2,0c-5.1,0-7.6,2.5-7.6,7.6l0,4.9c0,3.3,0.9,5.5,3.9,7.6l5.7,4.2c1.3,1,2.1,1.9,2,3.9l0,6.2
		c0,2.1-1,3.1-3.1,3.1l-0.9,0c-2.1,0-3.1-1-3.1-3.1l0-8.8l-4.6,0l0,8.6c0,5,2.5,7.5,7.5,7.5l1.3,0c5.1,0,7.6-2.5,7.6-7.6l0-6
		C249,28.8,248.1,26.9,245.1,24.7 M217.5,4.5l-0.1,41.1l12.4,0l0-4.3l-7.7,0l0-36.7L217.5,4.5z M200.6,4.5l-0.1,41.1l13,0l0-4.3
		l-8.3,0l0-14.5l7.9,0l0-4.3l-7.9,0l0-13.6l8.2,0l0-4.3L200.6,4.5z M191.6,45.5l0-36.7l6.2,0l0-4.3l-17,0l0,4.3l6.2,0l0,36.7
		L191.6,45.5z M173.9,11.5l0,27c0,2.1-1,3.1-3.1,3.1l-1.4,0c-2.1,0-3.1-1-3.1-3.1l0-27c0-2.1,1-3.1,3.1-3.1l1.4,0
		C173,8.4,174,9.4,173.9,11.5 M178.6,38.2l0-26.5c0-5.1-2.5-7.6-7.6-7.6l-1.8,0c-5.1,0-7.6,2.5-7.6,7.6l0,26.5
		c0,5.1,2.5,7.6,7.6,7.6l1.8,0C176.1,45.8,178.6,43.3,178.6,38.2 M145,22.3l0-17.9l-4.7,0l-0.1,41.1l4.7,0l0-18.8l7.6,0l0,18.8
		l4.7,0l0.1-41.1l-4.7,0l0,17.9L145,22.3z M107.4,4.3l-0.1,41.1l15.4,0l0-7.3l-7.2,0l0-9.9l6.7,0l0-7.3l-6.7,0l0-9.2l7,0l0-7.3
		L107.4,4.3z M95.1,33.2L92.2,4.3l-8.3,0l5.5,41.1l10.8,0l5.6-41l-7.6,0L95.1,33.2z M73.8,4.3l-0.1,41.1l8.2,0l0.1-41.1L73.8,4.3z
		 M57.5,4.3l-0.1,41.1l14.1,0l0-7.3l-5.9,0l0-33.7L57.5,4.3z M23.5,4.2l-0.1,41.1l15.4,0l0-7.3l-7.2,0l0-9.9l6.7,0l0-7.3l-6.7,0
		l0-9.2l7,0l0-7.3L23.5,4.2z M9.2,27.8l2.1,0c1,0,1.5,0.5,1.5,1.5l0,7.4c0,1-0.5,1.5-1.5,1.5l-2.1,0L9.2,27.8z M12.6,12.7l0,6.8
		c0,1-0.5,1.5-1.5,1.5l-1.9,0l0-9.7l1.9,0C12.1,11.3,12.6,11.7,12.6,12.7 M17.3,24c2.2-0.8,3.4-2.6,3.4-6.1l0-6.1
		c0-5.1-2.5-7.6-7.6-7.6l-12.1,0L1,45.3l12.2,0c5.1,0,7.6-2.5,7.6-7.6l0-8.3C20.9,26.3,19.8,24.8,17.3,24"/>
	<polygon class="st0" points="135.1,25.1 131.4,30.7 127.6,25.2 131.3,19.6 135.1,25.1 	"/>
	<polygon class="st0" points="52.3,25 48.5,30.6 44.7,25.1 48.4,19.4 52.3,25 	"/>
</g>
</svg>
