<svg xmlns="http://www.w3.org/2000/svg" width="877.5" height="354" viewBox="0 0 1755 708">
  <metadata><?xpacket begin="﻿" id="W5M0MpCehiHzreSzNTczkc9d"?>
<x:xmpmeta xmlns:x="adobe:ns:meta/" x:xmptk="Adobe XMP Core 5.6-c138 79.159824, 2016/09/14-01:09:01        ">
   <rdf:RDF xmlns:rdf="http://www.w3.org/1999/02/22-rdf-syntax-ns#">
      <rdf:Description rdf:about=""/>
   </rdf:RDF>
</x:xmpmeta>
                                                                                                    
                                                                                                    
                                                                                                    
                                                                                                    
                                                                                                    
                                                                                                    
                                                                                                    
                                                                                                    
                                                                                                    
                                                                                                    
                                                                                                    
                                                                                                    
                                                                                                    
                                                                                                    
                                                                                                    
                                                                                                    
                                                                                                    
                                                                                                    
                                                                                                    
                                                                                                    
                           
<?xpacket end="w"?></metadata>
<defs>
    <style>
      .cls-1 {
        fill: #27a4b8;
        fill-rule: evenodd;
      }
    </style>
  </defs>
  <path id="Abgerundetes_Rechteck_6" data-name="Abgerundetes Rechteck 6" class="cls-1" d="M300,407a340.492,340.492,0,0,0-60,27V205q0-19.992-15-35a49.1,49.1,0,0,0-36-15q-20.016,0-35,15-15,15-15,35V655c3.227,42.9,23.857,88.979,40,112,8.119,11.579,8.712,12.7,17,22,5.33,5.979,7.333,8.333,14,15,8.062,8.062,14.667,12.667,29,23a269.149,269.149,0,0,0,57.5,26.5A192.688,192.688,0,0,0,356,863a201.4,201.4,0,0,0,84.5-18,216.859,216.859,0,0,0,69-49.5q29.484-31.5,46.5-74,16.992-42.492,17-90.5a243.005,243.005,0,0,0-63.5-165,220.067,220.067,0,0,0-69-50.5A196.874,196.874,0,0,0,356,397Q329.984,397,300,407Zm10.5,345a108.612,108.612,0,0,1-37-28A137.667,137.667,0,0,1,249,682a144.044,144.044,0,0,1-9-51,146.968,146.968,0,0,1,9-52,137.667,137.667,0,0,1,24.5-42,114.6,114.6,0,0,1,37-28.5,103.833,103.833,0,0,1,91,0,114.942,114.942,0,0,1,37,28.5,146.558,146.558,0,0,1,25,42,140.167,140.167,0,0,1,9.5,52,137.4,137.4,0,0,1-9.5,51,146.558,146.558,0,0,1-25,42,108.919,108.919,0,0,1-37,28A108.513,108.513,0,0,1,310.5,752ZM689,848q15-15,15-35V448a51.215,51.215,0,0,0-51-51q-20.016,0-35,15a49.1,49.1,0,0,0-15,36V813q0,20.016,15,35,15,15,35,15A49.1,49.1,0,0,0,689,848Zm0-647a49.1,49.1,0,0,0-36-15q-20.016,0-35,15-15,15-15,35a49.1,49.1,0,0,0,15,36q15,15,35,15a51.215,51.215,0,0,0,51-51Q704,216.008,689,201Zm318,206a340.492,340.492,0,0,1,60,27V205q0-19.992,15-35a49.1,49.1,0,0,1,36-15q20.01,0,35,15t15,35V655c-3.23,42.9-23.86,88.979-40,112-8.12,11.579-8.71,12.7-17,22-5.33,5.979-7.33,8.333-14,15-8.06,8.062-14.67,12.667-29,23a269.283,269.283,0,0,1-57.5,26.5A192.688,192.688,0,0,1,951,863a201.4,201.4,0,0,1-84.5-18,216.859,216.859,0,0,1-69-49.5q-29.484-31.5-46.5-74-16.992-42.492-17-90.5a243.005,243.005,0,0,1,63.5-165,220.067,220.067,0,0,1,69-50.5A196.874,196.874,0,0,1,951,397Q977.016,397,1007,407ZM996.5,752a108.669,108.669,0,0,0,37-28,137.748,137.748,0,0,0,24.5-42,144.044,144.044,0,0,0,9-51,146.968,146.968,0,0,0-9-52,137.748,137.748,0,0,0-24.5-42,114.663,114.663,0,0,0-37-28.5,103.833,103.833,0,0,0-91,0,114.942,114.942,0,0,0-37,28.5,146.558,146.558,0,0,0-25,42,140.167,140.167,0,0,0-9.5,52,137.4,137.4,0,0,0,9.5,51,146.558,146.558,0,0,0,25,42,108.919,108.919,0,0,0,37,28A108.512,108.512,0,0,0,996.5,752ZM1476,407a340.492,340.492,0,0,1,60,27V205q0-19.992,15-35a49.1,49.1,0,0,1,36-15q20.01,0,35,15t15,35V655c-3.23,42.9-23.86,88.979-40,112-8.12,11.579-8.71,12.7-17,22-5.33,5.979-7.33,8.333-14,15-8.06,8.062-14.67,12.667-29,23a269.283,269.283,0,0,1-57.5,26.5A192.707,192.707,0,0,1,1420,863a201.386,201.386,0,0,1-84.5-18,216.815,216.815,0,0,1-69-49.5q-29.49-31.5-46.5-74T1203,631q0-48,17-90.5a240.992,240.992,0,0,1,46.5-74.5,220.021,220.021,0,0,1,69-50.5A196.861,196.861,0,0,1,1420,397Q1446.01,397,1476,407Zm-10.5,345a108.669,108.669,0,0,0,37-28,137.748,137.748,0,0,0,24.5-42,144.044,144.044,0,0,0,9-51,146.968,146.968,0,0,0-9-52,137.748,137.748,0,0,0-24.5-42,114.663,114.663,0,0,0-37-28.5,103.833,103.833,0,0,0-91,0,114.878,114.878,0,0,0-37,28.5,146.423,146.423,0,0,0-25,42,140.126,140.126,0,0,0-9.5,52,137.362,137.362,0,0,0,9.5,51,146.423,146.423,0,0,0,25,42,108.862,108.862,0,0,0,37,28A108.512,108.512,0,0,0,1465.5,752ZM1799,401a199,199,0,0,0-40,12,76.189,76.189,0,0,0-17.5-11.5A45.126,45.126,0,0,0,1722,397q-20.01,0-35,15a49.1,49.1,0,0,0-15,36V813q0,20.016,15,35,15,15,35,15a49.1,49.1,0,0,0,36-15q15-15,15-35V537a16.38,16.38,0,0,1,1-5,76.482,76.482,0,0,1,4-10q9.99-13.992,29.5-19a147.585,147.585,0,0,1,36.5-5q19.995,0,35-14.5a47.455,47.455,0,0,0,15-35.5,49.1,49.1,0,0,0-15-36q-15-15-35-15A241.352,241.352,0,0,0,1799,401Z" transform="translate(-139 -155)"/>
</svg>
