<svg width="58" height="58" viewBox="0 0 58 58" fill="none" xmlns="http://www.w3.org/2000/svg">
<g clip-path="url(#clip0_426_300)">
<path d="M12.2917 33H11.0389L14.2136 24.2727H15.5176L18.688 33H17.4352L14.8997 25.7557H14.8315L12.2917 33ZM12.6113 29.5866H17.1113V30.6094H12.6113V29.5866ZM24.5442 26.4545L22.1451 33H20.9519L18.5527 26.4545H19.78L21.5144 31.581H21.5826L23.3127 26.4545H24.5442ZM27.5208 33.1491C27.106 33.1491 26.7296 33.071 26.3915 32.9148C26.0563 32.7585 25.7892 32.5327 25.5904 32.2372C25.3944 31.9389 25.2963 31.5753 25.2963 31.1463C25.2963 30.7741 25.3688 30.4702 25.5137 30.2344C25.6614 29.9957 25.8574 29.8082 26.1017 29.6719C26.3461 29.5355 26.6174 29.4332 26.9157 29.3651C27.214 29.2969 27.5165 29.2443 27.8233 29.2074C28.2182 29.1562 28.5378 29.1165 28.7821 29.0881C29.0293 29.0597 29.2097 29.0128 29.3233 28.9474C29.437 28.8821 29.4938 28.7699 29.4938 28.6108V28.5767C29.4938 28.1818 29.3844 27.875 29.1657 27.6562C28.9469 27.4375 28.6188 27.3281 28.1813 27.3281C27.7267 27.3281 27.3702 27.4276 27.1117 27.6264C26.8532 27.8253 26.6713 28.0426 26.5662 28.2784L25.4924 27.9716C25.6486 27.5739 25.8659 27.2585 26.1444 27.0256C26.4256 26.7898 26.7395 26.6222 27.0861 26.5227C27.4355 26.4205 27.7921 26.3693 28.1557 26.3693C28.3915 26.3693 28.6515 26.3977 28.9355 26.4545C29.2196 26.5085 29.4895 26.6151 29.7452 26.7741C30.0037 26.9304 30.2168 27.1619 30.3844 27.4688C30.552 27.7727 30.6358 28.1733 30.6358 28.6705V33H29.5108V32.1094H29.4597C29.3858 32.2628 29.2679 32.4205 29.106 32.5824C28.9441 32.7415 28.7324 32.8764 28.4711 32.9872C28.2097 33.0952 27.8929 33.1491 27.5208 33.1491ZM27.7338 32.1861C28.1117 32.1861 28.4313 32.1122 28.6926 31.9645C28.954 31.8168 29.1529 31.625 29.2892 31.3892C29.4284 31.1534 29.498 30.902 29.498 30.6349V29.7528C29.4526 29.8011 29.3617 29.8452 29.2253 29.8849C29.089 29.9247 28.9327 29.9588 28.7566 29.9872C28.5833 30.0156 28.4128 30.0412 28.2452 30.0639C28.0804 30.0838 27.9441 30.1009 27.8361 30.1151C27.5833 30.1491 27.3489 30.2031 27.133 30.277C26.9199 30.3509 26.748 30.4602 26.6174 30.6051C26.4895 30.7472 26.4256 30.9389 26.4256 31.1804C26.4256 31.5128 26.5492 31.7642 26.7963 31.9347C27.0435 32.1023 27.356 32.1861 27.7338 32.1861ZM35.3532 26.4545V27.392H31.8716V26.4545H35.3532ZM32.8432 24.8864H33.9853V31.1037C33.9853 31.3679 34.0236 31.5668 34.1003 31.7003C34.1799 31.831 34.2821 31.919 34.4071 31.9645C34.5321 32.0099 34.6671 32.0327 34.812 32.0327C34.9171 32.0327 35.0066 32.027 35.0804 32.0156C35.1543 32.0014 35.2125 31.9901 35.2551 31.9815L35.4725 32.9574C35.4015 32.983 35.3006 33.0099 35.1699 33.0384C35.0421 33.0696 34.8801 33.0852 34.6841 33.0852C34.3745 33.0881 34.079 33.0284 33.7978 32.9062C33.5165 32.7812 33.2864 32.5909 33.1074 32.3352C32.9313 32.0795 32.8432 31.7571 32.8432 31.3679V24.8864ZM38.7356 33.1491C38.3208 33.1491 37.9444 33.071 37.6064 32.9148C37.2711 32.7585 37.0041 32.5327 36.8052 32.2372C36.6092 31.9389 36.5112 31.5753 36.5112 31.1463C36.5112 30.7741 36.5836 30.4702 36.7285 30.2344C36.8762 29.9957 37.0723 29.8082 37.3166 29.6719C37.5609 29.5355 37.8322 29.4332 38.1305 29.3651C38.4288 29.2969 38.7314 29.2443 39.0382 29.2074C39.4331 29.1562 39.7527 29.1165 39.997 29.0881C40.2441 29.0597 40.4245 29.0128 40.5382 28.9474C40.6518 28.8821 40.7086 28.7699 40.7086 28.6108V28.5767C40.7086 28.1818 40.5993 27.875 40.3805 27.6562C40.1618 27.4375 39.8336 27.3281 39.3961 27.3281C38.9416 27.3281 38.585 27.4276 38.3265 27.6264C38.068 27.8253 37.8862 28.0426 37.7811 28.2784L36.7072 27.9716C36.8635 27.5739 37.0808 27.2585 37.3592 27.0256C37.6404 26.7898 37.9544 26.6222 38.301 26.5227C38.6504 26.4205 39.0069 26.3693 39.3706 26.3693C39.6064 26.3693 39.8663 26.3977 40.1504 26.4545C40.4345 26.5085 40.7044 26.6151 40.96 26.7741C41.2186 26.9304 41.4316 27.1619 41.5993 27.4688C41.7669 27.7727 41.8507 28.1733 41.8507 28.6705V33H40.7257V32.1094H40.6745C40.6007 32.2628 40.4828 32.4205 40.3208 32.5824C40.1589 32.7415 39.9473 32.8764 39.6859 32.9872C39.4245 33.0952 39.1078 33.1491 38.7356 33.1491ZM38.9487 32.1861C39.3265 32.1861 39.6461 32.1122 39.9075 31.9645C40.1689 31.8168 40.3677 31.625 40.5041 31.3892C40.6433 31.1534 40.7129 30.902 40.7129 30.6349V29.7528C40.6674 29.8011 40.5765 29.8452 40.4402 29.8849C40.3038 29.9247 40.1475 29.9588 39.9714 29.9872C39.7981 30.0156 39.6277 30.0412 39.46 30.0639C39.2953 30.0838 39.1589 30.1009 39.051 30.1151C38.7981 30.1491 38.5637 30.2031 38.3478 30.277C38.1348 30.3509 37.9629 30.4602 37.8322 30.6051C37.7044 30.7472 37.6404 30.9389 37.6404 31.1804C37.6404 31.5128 37.764 31.7642 38.0112 31.9347C38.2583 32.1023 38.5708 32.1861 38.9487 32.1861ZM43.6149 33V26.4545H44.7186V27.4688H44.7868C44.9061 27.1307 45.1191 26.8608 45.426 26.6591C45.7356 26.4545 46.0836 26.3523 46.47 26.3523C46.5467 26.3523 46.639 26.3551 46.747 26.3608C46.8578 26.3636 46.9444 26.3693 47.0069 26.3778V27.4986C46.9643 27.4872 46.8791 27.473 46.7512 27.456C46.6262 27.4361 46.4984 27.4261 46.3677 27.4261C46.0581 27.4261 45.7811 27.4915 45.5368 27.6222C45.2953 27.75 45.1049 27.9276 44.9657 28.1548C44.8265 28.3821 44.7569 28.6406 44.7569 28.9304V33H43.6149Z" fill="black"/>
<path d="M57.3536 1.35355C57.5488 1.15829 57.5488 0.841709 57.3536 0.646447C57.1583 0.451184 56.8417 0.451184 56.6464 0.646447L57.3536 1.35355ZM47.9217 9.37119C47.7264 9.56645 47.7264 9.88303 47.9217 10.0783C48.117 10.2736 48.4335 10.2736 48.6288 10.0783L47.9217 9.37119ZM10.0783 48.6288C10.2735 48.4336 10.2735 48.117 10.0783 47.9217C9.88302 47.7265 9.56644 47.7265 9.37117 47.9217L10.0783 48.6288ZM0.646447 56.6464C0.451184 56.8417 0.451184 57.1583 0.646447 57.3536C0.841709 57.5488 1.15829 57.5488 1.35355 57.3536L0.646447 56.6464ZM1.35355 0.646447C1.15829 0.451184 0.841709 0.451184 0.646447 0.646447C0.451184 0.841709 0.451184 1.15829 0.646447 1.35355L1.35355 0.646447ZM9.37117 10.0783C9.56644 10.2735 9.88302 10.2735 10.0783 10.0783C10.2735 9.88302 10.2735 9.56644 10.0783 9.37117L9.37117 10.0783ZM48.6288 47.9217C48.4335 47.7264 48.117 47.7264 47.9217 47.9217C47.7264 48.117 47.7264 48.4335 47.9217 48.6288L48.6288 47.9217ZM56.6464 57.3536C56.8417 57.5488 57.1583 57.5488 57.3536 57.3536C57.5488 57.1583 57.5488 56.8417 57.3536 56.6464L56.6464 57.3536ZM56.6464 0.646447L47.9217 9.37119L48.6288 10.0783L57.3536 1.35355L56.6464 0.646447ZM9.37117 47.9217L0.646447 56.6464L1.35355 57.3536L10.0783 48.6288L9.37117 47.9217ZM0.646447 1.35355L9.37117 10.0783L10.0783 9.37117L1.35355 0.646447L0.646447 1.35355ZM47.9217 48.6288L56.6464 57.3536L57.3536 56.6464L48.6288 47.9217L47.9217 48.6288Z" fill="black"/>
</g>
<rect x="0.5" y="0.5" width="57" height="57" rx="28.5" stroke="black" stroke-linejoin="round"/>
<defs>
<clipPath id="clip0_426_300">
<rect x="1" y="1" width="56" height="56" rx="28" fill="white"/>
</clipPath>
</defs>
</svg>
