<?xml version="1.0" encoding="UTF-8"?>
<svg xmlns="http://www.w3.org/2000/svg" xmlns:xlink="http://www.w3.org/1999/xlink" width="192pt" height="191.999996pt" viewBox="0 0 192 191.999996" version="1.2">
<defs>
<clipPath id="clip1">
  <path d="M 9.601562 34.105469 L 182.101562 34.105469 L 182.101562 157.855469 L 9.601562 157.855469 Z M 9.601562 34.105469 "/>
</clipPath>
</defs>
<g id="surface1">
<path style=" stroke:none;fill-rule:nonzero;fill:rgb(100%,100%,100%);fill-opacity:1;" d="M 28.558594 105.476562 C 25.945312 105.476562 23.820312 103.351562 23.820312 100.726562 L 23.820312 48.507812 C 23.820312 45.886719 25.945312 43.761719 28.558594 43.761719 L 120.457031 43.761719 C 123.078125 43.761719 125.199219 45.886719 125.199219 48.507812 L 125.199219 100.726562 C 125.199219 103.351562 123.078125 105.476562 120.457031 105.476562 Z M 66.492188 148.199219 C 61.253906 148.199219 57.007812 143.941406 57.007812 138.707031 C 57.007812 133.46875 61.253906 129.210938 66.492188 129.210938 C 71.726562 129.210938 75.96875 133.464844 75.96875 138.707031 C 75.96875 143.945312 71.726562 148.199219 66.492188 148.199219 M 148.902344 148.199219 C 143.664062 148.199219 139.421875 143.941406 139.421875 138.707031 C 139.421875 133.46875 143.667969 129.210938 148.902344 129.210938 C 154.140625 129.210938 158.382812 133.464844 158.382812 138.707031 C 158.382812 143.945312 154.140625 148.199219 148.902344 148.199219 M 177.347656 129.210938 C 177.347656 131.835938 175.226562 133.957031 172.605469 133.957031 L 167.191406 133.957031 C 165.070312 125.789062 157.707031 119.71875 148.902344 119.71875 C 140.085938 119.71875 132.726562 125.789062 130.605469 133.957031 L 84.777344 133.957031 C 82.65625 125.789062 75.292969 119.71875 66.492188 119.71875 C 57.675781 119.71875 50.316406 125.789062 48.195312 133.957031 L 42.789062 133.957031 C 40.167969 133.957031 38.046875 131.835938 38.046875 129.210938 L 38.046875 114.96875 L 120.457031 114.96875 C 128.300781 114.96875 134.679688 108.582031 134.679688 100.726562 L 134.679688 67.5 L 153.644531 67.5 C 155.226562 67.5 156.707031 68.292969 157.585938 69.613281 L 176.546875 98.097656 C 177.066406 98.875 177.34375 99.792969 177.34375 100.730469 L 177.34375 129.210938 Z M 177.347656 129.210938 "/>
<path style=" stroke:none;fill-rule:nonzero;fill:rgb(11.759949%,21.179199%,36.079407%);fill-opacity:1;" d="M 148.105469 74.359375 C 147.226562 73.039062 145.746094 72.246094 144.160156 72.246094 L 139.421875 72.246094 C 136.800781 72.246094 134.679688 74.367188 134.679688 76.992188 L 134.679688 105.476562 C 134.679688 108.101562 136.800781 110.222656 139.421875 110.222656 L 158.382812 110.222656 C 161.003906 110.222656 163.125 108.101562 163.125 105.476562 L 163.125 98.355469 C 163.125 97.417969 162.847656 96.5 162.328125 95.722656 Z M 158.382812 105.476562 L 139.421875 105.476562 L 139.421875 76.992188 L 144.160156 76.992188 L 158.382812 98.355469 Z M 158.382812 105.476562 "/>
<g clip-path="url(#clip1)" clip-rule="nonzero">
<path style=" stroke:none;fill-rule:nonzero;fill:rgb(11.759949%,21.179199%,36.079407%);fill-opacity:1;" d="M 179.695312 92.828125 L 160.734375 64.34375 C 158.082031 60.371094 153.664062 58.003906 148.902344 58.003906 L 129.941406 58.003906 L 129.941406 48.507812 C 129.941406 40.65625 123.5625 34.269531 115.71875 34.269531 L 23.820312 34.269531 C 15.980469 34.269531 9.601562 40.65625 9.601562 48.507812 L 9.601562 100.726562 C 9.601562 108.582031 15.980469 114.96875 23.820312 114.96875 L 23.828125 114.96875 L 23.828125 129.210938 C 23.828125 137.066406 30.203125 143.453125 38.046875 143.453125 L 43.453125 143.453125 C 45.574219 151.621094 52.933594 157.695312 61.75 157.695312 C 70.554688 157.695312 77.914062 151.621094 80.035156 143.453125 L 125.867188 143.453125 C 127.988281 151.621094 135.347656 157.695312 144.164062 157.695312 C 152.96875 157.695312 160.328125 151.621094 162.449219 143.453125 L 167.867188 143.453125 C 175.710938 143.453125 182.089844 137.066406 182.089844 129.210938 L 182.089844 100.726562 C 182.085938 97.910156 181.261719 95.175781 179.695312 92.828125 M 23.820312 105.476562 C 21.207031 105.476562 19.082031 103.351562 19.082031 100.726562 L 19.082031 48.507812 C 19.082031 45.886719 21.203125 43.761719 23.820312 43.761719 L 115.71875 43.761719 C 118.339844 43.761719 120.460938 45.886719 120.460938 48.507812 L 120.460938 100.726562 C 120.460938 103.351562 118.339844 105.476562 115.71875 105.476562 Z M 61.75 148.199219 C 56.515625 148.199219 52.269531 143.941406 52.269531 138.707031 C 52.269531 133.46875 56.515625 129.210938 61.75 129.210938 C 66.984375 129.210938 71.230469 133.464844 71.230469 138.707031 C 71.230469 143.945312 66.984375 148.199219 61.75 148.199219 M 144.160156 148.199219 C 138.921875 148.199219 134.679688 143.941406 134.679688 138.707031 C 134.679688 133.46875 138.925781 129.210938 144.160156 129.210938 C 149.394531 129.210938 153.644531 133.464844 153.644531 138.707031 C 153.644531 143.945312 149.398438 148.199219 144.160156 148.199219 M 172.605469 129.210938 C 172.605469 131.835938 170.484375 133.957031 167.863281 133.957031 L 162.449219 133.957031 C 160.328125 125.789062 152.96875 119.71875 144.160156 119.71875 C 135.347656 119.71875 127.988281 125.789062 125.863281 133.957031 L 80.035156 133.957031 C 77.914062 125.789062 70.554688 119.71875 61.75 119.71875 C 52.933594 119.71875 45.574219 125.789062 43.453125 133.957031 L 38.046875 133.957031 C 35.425781 133.957031 33.304688 131.835938 33.304688 129.210938 L 33.304688 114.96875 L 115.71875 114.96875 C 123.558594 114.96875 129.9375 108.582031 129.9375 100.726562 L 129.9375 67.5 L 148.898438 67.5 C 150.484375 67.5 151.964844 68.292969 152.84375 69.613281 L 171.804688 98.097656 C 172.328125 98.875 172.601562 99.792969 172.601562 100.730469 L 172.601562 129.210938 Z M 172.605469 129.210938 "/>
</g>
</g>
</svg>
