<?xml version="1.0" encoding="UTF-8"?>
<svg xmlns="http://www.w3.org/2000/svg" xmlns:xlink="http://www.w3.org/1999/xlink" width="192pt" height="191.999996pt" viewBox="0 0 192 191.999996" version="1.2">
<defs>
<clipPath id="clip1">
  <path d="M 47.289062 7.691406 L 154.371094 7.691406 L 154.371094 183.941406 L 47.289062 183.941406 Z M 47.289062 7.691406 "/>
</clipPath>
</defs>
<g id="surface1">
<g clip-path="url(#clip1)" clip-rule="nonzero">
<path style=" stroke:none;fill-rule:nonzero;fill:rgb(11.759949%,21.179199%,36.079407%);fill-opacity:1;" d="M 121.511719 36.316406 C 121.511719 31.917969 118.921875 27.933594 114.902344 26.148438 L 67.734375 5.183594 L 67.734375 55.972656 L 46.824219 55.972656 L 46.824219 184.433594 L 154.371094 184.433594 L 154.371094 91.820312 L 121.511719 91.820312 Z M 73.710938 166.507812 L 61.761719 166.507812 L 61.761719 154.558594 L 73.710938 154.558594 Z M 73.710938 142.609375 L 61.761719 142.609375 L 61.761719 130.660156 L 73.710938 130.660156 Z M 73.710938 118.707031 L 61.761719 118.707031 L 61.761719 106.757812 L 73.710938 106.757812 Z M 73.710938 94.808594 L 61.761719 94.808594 L 61.761719 82.859375 L 73.710938 82.859375 Z M 103.585938 166.507812 L 91.636719 166.507812 L 91.636719 38.046875 L 103.585938 38.046875 Z M 124.496094 106.757812 L 136.449219 106.757812 L 136.449219 118.707031 L 124.496094 118.707031 Z M 124.496094 130.660156 L 136.449219 130.660156 L 136.449219 142.609375 L 124.496094 142.609375 Z M 124.496094 154.558594 L 136.449219 154.558594 L 136.449219 166.507812 L 124.496094 166.507812 Z M 124.496094 154.558594 "/>
</g>
</g>
</svg>
