<?xml version="1.0" encoding="UTF-8"?>
<svg xmlns="http://www.w3.org/2000/svg" xmlns:xlink="http://www.w3.org/1999/xlink" width="192pt" height="191.999996pt" viewBox="0 0 192 191.999996" version="1.2">
<defs>
<clipPath id="clip1">
  <path d="M 12.820312 39.070312 L 179.039062 39.070312 L 179.039062 162.8125 L 12.820312 162.8125 Z M 12.820312 39.070312 "/>
</clipPath>
</defs>
<g id="surface1">
<g clip-path="url(#clip1)" clip-rule="nonzero">
<path style=" stroke:none;fill-rule:evenodd;fill:rgb(11.759949%,21.179199%,36.079407%);fill-opacity:1;" d="M 23.300781 88.734375 C 20.453125 98.621094 18 102.679688 17.953125 114.835938 C 17.929688 125.457031 17.980469 136.082031 17.960938 146.71875 C 17.941406 160.929688 18.949219 162.765625 33.457031 162.8125 C 48.476562 162.863281 46.667969 157.226562 46.714844 143.9375 L 145 143.847656 C 145.113281 156.65625 143.363281 162.863281 157.636719 162.8125 C 178.015625 162.765625 173.75 159 173.769531 115.554688 C 173.773438 103.835938 171.675781 98.394531 168.378906 88.730469 C 178.019531 88.398438 189.671875 66.136719 160.589844 70.6875 C 159.050781 65.878906 156.960938 61.347656 154.945312 56.625 C 152.417969 50.65625 152.234375 48.675781 148.15625 44.523438 C 144.695312 40.988281 139.761719 39.519531 134.203125 39.21875 L 131.691406 39.070312 L 56.796875 39.308594 C 42.921875 39.429688 40 49.046875 36.378906 57.578125 C 34.960938 60.894531 32.515625 68.300781 30.523438 70.546875 C 2.535156 66.320312 13.816406 88.371094 23.300781 88.734375 Z M 56.660156 124.558594 L 56.660156 109.855469 L 135.203125 109.855469 L 135.203125 124.558594 Z M 45.882812 119.550781 C 45.882812 124.398438 41.917969 128.339844 37.015625 128.34375 C 32.121094 128.34375 28.152344 124.402344 28.152344 119.550781 C 28.152344 114.699219 32.121094 110.734375 37.015625 110.734375 C 41.917969 110.734375 45.882812 114.699219 45.882812 119.550781 Z M 163.71875 119.550781 C 163.71875 124.398438 159.734375 128.339844 154.851562 128.34375 C 149.933594 128.34375 145.972656 124.402344 145.972656 119.550781 C 145.972656 114.699219 149.933594 110.734375 154.851562 110.734375 C 159.734375 110.734375 163.71875 114.699219 163.71875 119.550781 Z M 57.757812 46.554688 C 63.191406 45.15625 89.925781 46.089844 97.75 46.089844 C 137.503906 46.089844 137.207031 42.027344 144.738281 60.246094 C 146.707031 65.03125 148.78125 69.921875 150.695312 74.632812 C 152.261719 78.550781 157.332031 86.691406 153.382812 89.609375 C 150.453125 91.765625 60.816406 90.597656 52.449219 90.597656 C 33.296875 90.597656 34.078125 91.382812 42.117188 71.941406 C 46.753906 60.667969 49.5 48.6875 57.757812 46.554688 "/>
</g>
</g>
</svg>
