<?xml version="1.0" encoding="UTF-8"?>
<svg xmlns="http://www.w3.org/2000/svg" xmlns:xlink="http://www.w3.org/1999/xlink" width="192pt" height="191.999996pt" viewBox="0 0 192 191.999996" version="1.2">
<defs>
<clipPath id="clip1">
  <path d="M 11.59375 15.105469 L 180.234375 15.105469 L 180.234375 184 L 11.59375 184 Z M 11.59375 15.105469 "/>
</clipPath>
</defs>
<g id="surface1">
<g clip-path="url(#clip1)" clip-rule="nonzero">
<path style=" stroke:none;fill-rule:nonzero;fill:rgb(11.759949%,21.179199%,36.079407%);fill-opacity:1;" d="M 172.398438 83.355469 C 171.558594 83.363281 170.738281 83.242188 169.9375 82.988281 C 169.140625 82.734375 168.398438 82.359375 167.71875 81.871094 C 167.039062 81.378906 166.449219 80.796875 165.953125 80.117188 C 165.460938 79.441406 165.082031 78.703125 164.824219 77.902344 C 163.527344 73.757812 161.871094 69.765625 159.851562 65.921875 C 159.46875 65.171875 159.210938 64.382812 159.078125 63.550781 C 158.945312 62.71875 158.945312 61.886719 159.082031 61.054688 C 159.214844 60.222656 159.472656 59.433594 159.859375 58.683594 C 160.246094 57.9375 160.738281 57.265625 161.335938 56.675781 C 161.699219 56.3125 162.019531 55.917969 162.304688 55.492188 C 162.589844 55.070312 162.828125 54.621094 163.023438 54.148438 C 163.21875 53.675781 163.367188 53.1875 163.464844 52.6875 C 163.566406 52.183594 163.613281 51.679688 163.613281 51.167969 C 163.613281 50.65625 163.566406 50.148438 163.464844 49.648438 C 163.367188 49.148438 163.21875 48.660156 163.023438 48.1875 C 162.828125 47.714844 162.589844 47.265625 162.304688 46.839844 C 162.019531 46.414062 161.699219 46.023438 161.335938 45.660156 L 149.65625 33.949219 C 149.296875 33.589844 148.902344 33.265625 148.476562 32.980469 C 148.050781 32.699219 147.605469 32.457031 147.132812 32.261719 C 146.660156 32.066406 146.171875 31.921875 145.671875 31.820312 C 145.171875 31.71875 144.664062 31.671875 144.152344 31.671875 C 143.640625 31.671875 143.136719 31.71875 142.636719 31.820312 C 142.132812 31.921875 141.648438 32.066406 141.175781 32.261719 C 140.703125 32.457031 140.253906 32.699219 139.828125 32.980469 C 139.40625 33.265625 139.011719 33.589844 138.648438 33.949219 C 138.058594 34.550781 137.390625 35.042969 136.640625 35.429688 C 135.894531 35.816406 135.105469 36.074219 134.273438 36.207031 C 133.441406 36.34375 132.609375 36.34375 131.777344 36.210938 C 130.949219 36.078125 130.15625 35.820312 129.410156 35.4375 C 125.570312 33.414062 121.578125 31.757812 117.433594 30.460938 C 116.636719 30.203125 115.898438 29.824219 115.222656 29.328125 C 114.546875 28.835938 113.960938 28.246094 113.472656 27.566406 C 112.980469 26.882812 112.609375 26.140625 112.355469 25.34375 C 112.101562 24.542969 111.976562 23.722656 111.984375 22.882812 C 111.984375 22.371094 111.933594 21.863281 111.835938 21.363281 C 111.734375 20.863281 111.585938 20.375 111.390625 19.902344 C 111.191406 19.429688 110.953125 18.980469 110.667969 18.554688 C 110.382812 18.132812 110.058594 17.738281 109.699219 17.378906 C 109.335938 17.015625 108.941406 16.695312 108.515625 16.410156 C 108.089844 16.125 107.640625 15.886719 107.167969 15.691406 C 106.699219 15.496094 106.210938 15.351562 105.707031 15.25 C 105.207031 15.152344 104.699219 15.101562 104.191406 15.105469 L 87.65625 15.105469 C 87.148438 15.105469 86.640625 15.152344 86.140625 15.253906 C 85.636719 15.351562 85.152344 15.5 84.679688 15.695312 C 84.207031 15.890625 83.757812 16.132812 83.332031 16.417969 C 82.910156 16.699219 82.515625 17.023438 82.15625 17.386719 C 81.792969 17.746094 81.46875 18.140625 81.1875 18.566406 C 80.902344 18.992188 80.664062 19.4375 80.46875 19.910156 C 80.273438 20.382812 80.125 20.871094 80.023438 21.371094 C 79.925781 21.875 79.875 22.378906 79.875 22.890625 L 79.875 23.058594 C 79.882812 23.875 79.761719 24.671875 79.515625 25.449219 C 79.269531 26.226562 78.910156 26.945312 78.433594 27.609375 C 77.957031 28.269531 77.390625 28.839844 76.734375 29.320312 C 76.074219 29.804688 75.359375 30.167969 74.585938 30.421875 C 70.386719 31.726562 66.339844 33.398438 62.449219 35.445312 C 61.699219 35.828125 60.910156 36.089844 60.078125 36.21875 C 59.246094 36.351562 58.414062 36.351562 57.582031 36.21875 C 56.753906 36.085938 55.960938 35.824219 55.214844 35.4375 C 54.464844 35.050781 53.796875 34.558594 53.207031 33.960938 C 52.84375 33.597656 52.449219 33.273438 52.027344 32.992188 C 51.601562 32.707031 51.152344 32.46875 50.679688 32.273438 C 50.207031 32.078125 49.722656 31.929688 49.222656 31.828125 C 48.71875 31.730469 48.214844 31.679688 47.703125 31.679688 C 47.191406 31.679688 46.6875 31.730469 46.183594 31.828125 C 45.683594 31.929688 45.195312 32.078125 44.726562 32.273438 C 44.253906 32.46875 43.804688 32.707031 43.378906 32.992188 C 42.953125 33.273438 42.5625 33.597656 42.199219 33.960938 L 30.5 45.648438 C 30.140625 46.007812 29.816406 46.402344 29.535156 46.828125 C 29.25 47.253906 29.011719 47.703125 28.816406 48.175781 C 28.621094 48.648438 28.472656 49.132812 28.371094 49.636719 C 28.273438 50.136719 28.222656 50.644531 28.222656 51.15625 C 28.222656 51.664062 28.273438 52.171875 28.371094 52.671875 C 28.472656 53.175781 28.621094 53.660156 28.816406 54.132812 C 29.011719 54.605469 29.25 55.054688 29.535156 55.480469 C 29.816406 55.90625 30.140625 56.300781 30.5 56.660156 C 31.101562 57.253906 31.59375 57.921875 31.980469 58.671875 C 32.363281 59.417969 32.625 60.210938 32.757812 61.042969 C 32.890625 61.875 32.894531 62.703125 32.761719 63.535156 C 32.628906 64.367188 32.371094 65.160156 31.988281 65.910156 C 29.96875 69.753906 28.3125 73.746094 27.015625 77.890625 C 26.757812 78.6875 26.378906 79.425781 25.882812 80.105469 C 25.390625 80.78125 24.800781 81.367188 24.121094 81.855469 C 23.4375 82.347656 22.699219 82.71875 21.898438 82.972656 C 21.097656 83.226562 20.28125 83.351562 19.441406 83.34375 C 18.929688 83.34375 18.425781 83.394531 17.921875 83.496094 C 17.421875 83.597656 16.933594 83.746094 16.460938 83.941406 C 15.992188 84.136719 15.542969 84.378906 15.117188 84.664062 C 14.691406 84.945312 14.300781 85.269531 13.9375 85.632812 C 13.578125 85.996094 13.257812 86.390625 12.972656 86.816406 C 12.6875 87.242188 12.449219 87.691406 12.253906 88.164062 C 12.058594 88.636719 11.914062 89.125 11.816406 89.625 C 11.714844 90.125 11.667969 90.632812 11.667969 91.144531 L 11.667969 107.6875 C 11.667969 108.199219 11.71875 108.707031 11.816406 109.207031 C 11.917969 109.707031 12.066406 110.195312 12.261719 110.667969 C 12.457031 111.140625 12.695312 111.589844 12.980469 112.015625 C 13.261719 112.441406 13.585938 112.832031 13.945312 113.195312 C 14.308594 113.554688 14.703125 113.878906 15.125 114.164062 C 15.550781 114.449219 16 114.6875 16.472656 114.882812 C 16.945312 115.078125 17.429688 115.226562 17.933594 115.328125 C 18.433594 115.425781 18.9375 115.476562 19.449219 115.476562 C 20.289062 115.46875 21.109375 115.59375 21.90625 115.847656 C 22.707031 116.101562 23.449219 116.472656 24.128906 116.960938 C 24.808594 117.453125 25.398438 118.039062 25.894531 118.714844 C 26.386719 119.394531 26.765625 120.132812 27.023438 120.929688 C 28.320312 125.074219 29.976562 129.066406 31.996094 132.910156 C 32.378906 133.660156 32.636719 134.449219 32.769531 135.28125 C 32.902344 136.113281 32.902344 136.945312 32.765625 137.777344 C 32.632812 138.609375 32.375 139.398438 31.988281 140.148438 C 31.601562 140.898438 31.109375 141.566406 30.511719 142.160156 C 30.148438 142.519531 29.828125 142.914062 29.542969 143.339844 C 29.257812 143.765625 29.019531 144.214844 28.824219 144.683594 C 28.628906 145.15625 28.480469 145.644531 28.382812 146.144531 C 28.28125 146.648438 28.230469 147.152344 28.230469 147.664062 C 28.230469 148.175781 28.28125 148.683594 28.382812 149.183594 C 28.480469 149.6875 28.628906 150.171875 28.824219 150.644531 C 29.019531 151.117188 29.257812 151.566406 29.542969 151.992188 C 29.828125 152.417969 30.148438 152.8125 30.511719 153.171875 L 42.199219 164.871094 C 42.5625 165.230469 42.953125 165.554688 43.378906 165.835938 C 43.804688 166.121094 44.253906 166.359375 44.726562 166.554688 C 45.195312 166.753906 45.683594 166.898438 46.183594 167 C 46.6875 167.097656 47.191406 167.148438 47.703125 167.148438 C 48.214844 167.148438 48.71875 167.097656 49.222656 167 C 49.722656 166.898438 50.207031 166.753906 50.679688 166.554688 C 51.152344 166.359375 51.601562 166.121094 52.027344 165.835938 C 52.449219 165.554688 52.84375 165.230469 53.207031 164.871094 C 53.796875 164.269531 54.464844 163.777344 55.214844 163.390625 C 55.960938 163.003906 56.753906 162.746094 57.582031 162.609375 C 58.414062 162.476562 59.246094 162.476562 60.078125 162.609375 C 60.910156 162.742188 61.699219 163 62.449219 163.382812 C 66.289062 165.402344 70.28125 167.0625 74.421875 168.359375 C 75.21875 168.617188 75.957031 168.996094 76.632812 169.488281 C 77.3125 169.984375 77.894531 170.574219 78.382812 171.253906 C 78.875 171.9375 79.246094 172.675781 79.5 173.476562 C 79.753906 174.277344 79.878906 175.097656 79.871094 175.9375 C 79.871094 176.449219 79.921875 176.957031 80.019531 177.457031 C 80.117188 177.960938 80.265625 178.445312 80.460938 178.917969 C 80.65625 179.390625 80.898438 179.839844 81.179688 180.265625 C 81.464844 180.691406 81.789062 181.085938 82.148438 181.449219 C 82.511719 181.808594 82.90625 182.132812 83.332031 182.417969 C 83.753906 182.703125 84.203125 182.941406 84.675781 183.136719 C 85.148438 183.332031 85.636719 183.480469 86.136719 183.578125 C 86.640625 183.679688 87.144531 183.730469 87.65625 183.730469 L 104.191406 183.730469 C 104.699219 183.730469 105.207031 183.679688 105.707031 183.578125 C 106.210938 183.480469 106.695312 183.332031 107.167969 183.136719 C 107.640625 182.941406 108.089844 182.699219 108.511719 182.417969 C 108.9375 182.132812 109.332031 181.808594 109.691406 181.449219 C 110.054688 181.085938 110.375 180.691406 110.660156 180.269531 C 110.945312 179.84375 111.183594 179.394531 111.378906 178.921875 C 111.574219 178.449219 111.722656 177.960938 111.824219 177.460938 C 111.921875 176.960938 111.972656 176.453125 111.972656 175.941406 C 111.964844 175.101562 112.089844 174.28125 112.34375 173.480469 C 112.597656 172.683594 112.96875 171.941406 113.457031 171.257812 C 113.949219 170.578125 114.53125 169.988281 115.210938 169.496094 C 115.886719 169 116.625 168.621094 117.421875 168.363281 C 121.5625 167.066406 125.554688 165.40625 129.394531 163.386719 C 130.144531 163.003906 130.933594 162.746094 131.765625 162.613281 C 132.597656 162.480469 133.429688 162.480469 134.257812 162.617188 C 135.089844 162.75 135.878906 163.007812 136.628906 163.394531 C 137.375 163.78125 138.046875 164.273438 138.636719 164.875 C 139 165.234375 139.390625 165.558594 139.816406 165.84375 C 140.242188 166.125 140.691406 166.367188 141.164062 166.5625 C 141.632812 166.757812 142.121094 166.902344 142.621094 167.003906 C 143.125 167.105469 143.628906 167.152344 144.140625 167.152344 C 144.652344 167.152344 145.15625 167.105469 145.660156 167.003906 C 146.160156 166.902344 146.644531 166.757812 147.117188 166.5625 C 147.589844 166.367188 148.039062 166.125 148.464844 165.84375 C 148.890625 165.558594 149.28125 165.234375 149.644531 164.875 L 161.332031 153.175781 C 161.695312 152.816406 162.015625 152.421875 162.300781 151.996094 C 162.582031 151.570312 162.824219 151.121094 163.019531 150.648438 C 163.214844 150.175781 163.363281 149.691406 163.460938 149.1875 C 163.5625 148.6875 163.609375 148.179688 163.609375 147.667969 C 163.609375 147.160156 163.5625 146.652344 163.460938 146.152344 C 163.363281 145.648438 163.214844 145.164062 163.019531 144.691406 C 162.824219 144.21875 162.582031 143.769531 162.300781 143.34375 C 162.015625 142.917969 161.695312 142.523438 161.332031 142.164062 C 160.734375 141.570312 160.242188 140.902344 159.855469 140.152344 C 159.46875 139.40625 159.210938 138.613281 159.074219 137.78125 C 158.941406 136.949219 158.941406 136.121094 159.074219 135.289062 C 159.203125 134.457031 159.464844 133.664062 159.847656 132.914062 C 161.890625 129.019531 163.566406 124.972656 164.867188 120.769531 C 165.121094 119.996094 165.484375 119.277344 165.964844 118.621094 C 166.449219 117.960938 167.019531 117.394531 167.679688 116.917969 C 168.339844 116.441406 169.058594 116.082031 169.835938 115.835938 C 170.613281 115.585938 171.410156 115.46875 172.222656 115.476562 L 172.394531 115.476562 C 172.902344 115.476562 173.410156 115.425781 173.910156 115.328125 C 174.414062 115.226562 174.898438 115.078125 175.371094 114.882812 C 175.84375 114.6875 176.292969 114.449219 176.71875 114.164062 C 177.144531 113.878906 177.535156 113.558594 177.898438 113.195312 C 178.261719 112.835938 178.582031 112.441406 178.867188 112.015625 C 179.152344 111.589844 179.390625 111.140625 179.585938 110.667969 C 179.78125 110.195312 179.929688 109.710938 180.03125 109.207031 C 180.128906 108.707031 180.179688 108.199219 180.179688 107.6875 L 180.179688 91.144531 C 180.179688 90.632812 180.128906 90.128906 180.03125 89.625 C 179.929688 89.125 179.78125 88.636719 179.585938 88.164062 C 179.390625 87.691406 179.152344 87.242188 178.867188 86.820312 C 178.585938 86.394531 178.261719 86 177.898438 85.636719 C 177.539062 85.277344 177.144531 84.953125 176.722656 84.667969 C 176.296875 84.386719 175.847656 84.144531 175.375 83.949219 C 174.902344 83.753906 174.417969 83.605469 173.914062 83.507812 C 173.414062 83.40625 172.90625 83.355469 172.398438 83.355469 Z M 95.921875 150.003906 C 94.269531 150.003906 92.617188 149.921875 90.96875 149.761719 C 89.320312 149.597656 87.683594 149.355469 86.0625 149.03125 C 84.4375 148.707031 82.832031 148.308594 81.25 147.824219 C 79.664062 147.34375 78.105469 146.789062 76.578125 146.152344 C 75.046875 145.519531 73.554688 144.8125 72.09375 144.03125 C 70.632812 143.25 69.214844 142.398438 67.835938 141.476562 C 66.460938 140.558594 65.132812 139.574219 63.851562 138.519531 C 62.574219 137.46875 61.347656 136.359375 60.175781 135.1875 C 59.007812 134.015625 57.894531 132.789062 56.84375 131.507812 C 55.792969 130.226562 54.808594 128.898438 53.890625 127.519531 C 52.96875 126.144531 52.121094 124.722656 51.339844 123.261719 C 50.558594 121.800781 49.851562 120.304688 49.21875 118.777344 C 48.585938 117.246094 48.027344 115.6875 47.546875 114.101562 C 47.066406 112.515625 46.664062 110.910156 46.339844 109.285156 C 46.019531 107.660156 45.777344 106.023438 45.613281 104.375 C 45.453125 102.726562 45.371094 101.074219 45.371094 99.417969 C 45.371094 97.757812 45.453125 96.105469 45.613281 94.457031 C 45.777344 92.808594 46.019531 91.171875 46.339844 89.546875 C 46.664062 87.921875 47.066406 86.316406 47.546875 84.730469 C 48.027344 83.144531 48.585938 81.589844 49.21875 80.058594 C 49.851562 78.527344 50.558594 77.03125 51.339844 75.570312 C 52.121094 74.109375 52.96875 72.6875 53.890625 71.3125 C 54.808594 69.933594 55.792969 68.605469 56.84375 67.324219 C 57.894531 66.042969 59.007812 64.816406 60.175781 63.644531 C 61.347656 62.472656 62.574219 61.363281 63.851562 60.3125 C 65.132812 59.261719 66.460938 58.273438 67.835938 57.355469 C 69.214844 56.433594 70.632812 55.582031 72.09375 54.800781 C 73.554688 54.019531 75.046875 53.3125 76.578125 52.679688 C 78.105469 52.046875 79.664062 51.488281 81.25 51.007812 C 82.832031 50.527344 84.4375 50.125 86.0625 49.800781 C 87.683594 49.476562 89.320312 49.234375 90.96875 49.074219 C 92.617188 48.910156 94.269531 48.828125 95.921875 48.828125 C 97.578125 48.828125 99.230469 48.910156 100.878906 49.074219 C 102.527344 49.234375 104.164062 49.476562 105.785156 49.800781 C 107.410156 50.125 109.015625 50.527344 110.597656 51.007812 C 112.183594 51.488281 113.738281 52.046875 115.269531 52.679688 C 116.800781 53.3125 118.292969 54.019531 119.753906 54.800781 C 121.214844 55.582031 122.632812 56.433594 124.007812 57.355469 C 125.386719 58.273438 126.714844 59.261719 127.996094 60.3125 C 129.273438 61.363281 130.5 62.472656 131.671875 63.644531 C 132.839844 64.816406 133.953125 66.042969 135.003906 67.324219 C 136.050781 68.605469 137.039062 69.933594 137.957031 71.3125 C 138.878906 72.6875 139.726562 74.109375 140.507812 75.570312 C 141.289062 77.03125 141.996094 78.527344 142.628906 80.058594 C 143.261719 81.589844 143.820312 83.144531 144.300781 84.730469 C 144.78125 86.316406 145.183594 87.921875 145.503906 89.546875 C 145.828125 91.171875 146.070312 92.808594 146.234375 94.457031 C 146.394531 96.105469 146.476562 97.757812 146.476562 99.417969 C 146.476562 101.074219 146.394531 102.726562 146.234375 104.375 C 146.070312 106.023438 145.828125 107.660156 145.503906 109.285156 C 145.183594 110.910156 144.78125 112.515625 144.300781 114.101562 C 143.820312 115.6875 143.261719 117.246094 142.628906 118.777344 C 141.996094 120.304688 141.289062 121.800781 140.507812 123.261719 C 139.726562 124.722656 138.878906 126.144531 137.957031 127.519531 C 137.039062 128.898438 136.050781 130.226562 135.003906 131.507812 C 133.953125 132.789062 132.839844 134.015625 131.671875 135.1875 C 130.5 136.359375 129.273438 137.46875 127.996094 138.519531 C 126.714844 139.574219 125.386719 140.558594 124.007812 141.476562 C 122.632812 142.398438 121.214844 143.25 119.753906 144.03125 C 118.292969 144.8125 116.800781 145.519531 115.269531 146.152344 C 113.738281 146.789062 112.183594 147.34375 110.597656 147.824219 C 109.015625 148.308594 107.410156 148.707031 105.785156 149.03125 C 104.164062 149.355469 102.527344 149.597656 100.878906 149.761719 C 99.230469 149.921875 97.578125 150.003906 95.921875 150.003906 Z M 95.921875 150.003906 "/>
</g>
<path style=" stroke:none;fill-rule:nonzero;fill:rgb(11.759949%,21.179199%,36.079407%);fill-opacity:1;" d="M 117.882812 73.066406 C 116.792969 72.507812 115.664062 72.414062 114.496094 72.792969 L 96.617188 78.648438 L 99.375 87.082031 L 107.195312 84.515625 L 98.628906 101.804688 L 89.515625 95.722656 C 89.265625 95.558594 89.003906 95.417969 88.722656 95.304688 C 88.445312 95.191406 88.160156 95.109375 87.867188 95.054688 C 87.570312 95 87.273438 94.972656 86.972656 94.980469 C 86.671875 94.984375 86.375 95.019531 86.085938 95.085938 C 85.792969 95.152344 85.507812 95.246094 85.234375 95.371094 C 84.960938 95.492188 84.703125 95.644531 84.460938 95.820312 C 84.214844 95.996094 83.992188 96.191406 83.789062 96.414062 C 83.585938 96.636719 83.410156 96.875 83.253906 97.132812 L 69.949219 119.320312 L 77.550781 123.890625 L 88.464844 105.695312 L 97.898438 111.988281 C 98.425781 112.34375 99.003906 112.574219 99.632812 112.679688 C 100.265625 112.78125 100.886719 112.75 101.503906 112.582031 C 102.117188 112.417969 102.671875 112.136719 103.164062 111.730469 C 103.660156 111.328125 104.046875 110.839844 104.332031 110.269531 L 115.03125 88.707031 L 117.515625 96.304688 L 125.941406 93.542969 L 120.085938 75.648438 C 119.710938 74.484375 118.972656 73.625 117.882812 73.066406 Z M 117.882812 73.066406 "/>
</g>
</svg>
