<?xml version="1.0" encoding="UTF-8"?>
<svg xmlns="http://www.w3.org/2000/svg" xmlns:xlink="http://www.w3.org/1999/xlink" width="192pt" height="191.999996pt" viewBox="0 0 192 191.999996" version="1.2">
<defs>
<clipPath id="clip1">
  <path d="M 13.296875 36.296875 L 179.046875 36.296875 L 179.046875 155.546875 L 13.296875 155.546875 Z M 13.296875 36.296875 "/>
</clipPath>
</defs>
<g id="surface1">
<g clip-path="url(#clip1)" clip-rule="nonzero">
<path style=" stroke:none;fill-rule:nonzero;fill:rgb(11.759949%,21.179199%,36.079407%);fill-opacity:1;" d="M 125.769531 51.535156 L 125.769531 85.695312 L 69.578125 53.539062 L 69.578125 85.695312 L 37.472656 69.621094 L 37.472656 19.367188 C 37.472656 14.925781 33.875 11.328125 29.445312 11.328125 L 21.410156 11.328125 C 16.984375 11.328125 13.382812 14.925781 13.382812 19.367188 L 13.382812 156.078125 L 181.96875 156.078125 L 181.96875 83.703125 Z M 93.667969 123.910156 L 69.585938 123.910156 L 69.585938 99.785156 L 93.667969 99.785156 Z M 149.859375 123.910156 L 125.777344 123.910156 L 125.777344 99.785156 L 149.859375 99.785156 L 149.859375 123.910156 "/>
</g>
</g>
</svg>
