<?xml version="1.0" encoding="UTF-8"?>
<svg xmlns="http://www.w3.org/2000/svg" xmlns:xlink="http://www.w3.org/1999/xlink" width="192pt" height="191.999996pt" viewBox="0 0 192 191.999996" version="1.2">
<defs>
<clipPath id="clip1">
  <path d="M 33.042969 12.058594 L 159.042969 12.058594 L 159.042969 180 L 33.042969 180 Z M 33.042969 12.058594 "/>
</clipPath>
</defs>
<g id="surface1">
<g clip-path="url(#clip1)" clip-rule="nonzero">
<path style=" stroke:none;fill-rule:nonzero;fill:rgb(11.759949%,21.179199%,36.079407%);fill-opacity:1;" d="M 158.761719 55.738281 C 158.761719 55.460938 158.484375 55.179688 158.203125 55.179688 L 114.804688 13.460938 C 114.804688 13.460938 114.523438 13.179688 114.523438 13.179688 C 114.523438 13.179688 114.242188 12.902344 114.242188 12.902344 C 113.964844 12.902344 113.683594 12.621094 113.402344 12.621094 L 44.242188 12.621094 C 38.082031 12.621094 33.042969 17.660156 33.042969 23.820312 L 33.042969 168.292969 C 33.042969 174.453125 38.082031 179.492188 44.242188 179.492188 L 147.84375 179.492188 C 154.003906 179.492188 159.042969 174.453125 159.042969 168.292969 L 159.042969 56.578125 C 159.042969 56.300781 159.042969 56.019531 158.761719 55.738281 Z M 115.644531 19.902344 L 151.761719 54.621094 L 122.363281 54.621094 C 118.441406 54.621094 115.363281 51.539062 115.363281 47.621094 L 115.363281 19.902344 Z M 154.84375 168.292969 C 154.84375 172.214844 151.761719 175.292969 147.84375 175.292969 L 44.242188 175.292969 C 40.324219 175.292969 37.242188 172.214844 37.242188 168.292969 L 37.242188 23.820312 C 37.242188 19.902344 40.324219 16.820312 44.242188 16.820312 L 111.441406 16.820312 L 111.441406 47.621094 C 111.441406 53.777344 116.484375 58.820312 122.644531 58.820312 L 154.84375 58.820312 Z M 154.84375 168.292969 "/>
</g>
<path style=" stroke:none;fill-rule:nonzero;fill:rgb(11.759949%,21.179199%,36.079407%);fill-opacity:1;" d="M 48.164062 81.777344 C 48.164062 82.898438 49.003906 84.019531 50.402344 84.019531 L 142.242188 84.019531 C 143.363281 84.019531 144.484375 83.179688 144.484375 81.777344 C 144.484375 80.378906 143.644531 79.539062 142.242188 79.539062 L 50.121094 79.539062 C 49.003906 79.539062 48.164062 80.65625 48.164062 81.777344 Z M 48.164062 81.777344 "/>
<path style=" stroke:none;fill-rule:nonzero;fill:rgb(11.759949%,21.179199%,36.079407%);fill-opacity:1;" d="M 142.242188 97.457031 L 50.121094 97.457031 C 49.003906 97.457031 47.882812 98.296875 47.882812 99.695312 C 47.882812 101.097656 48.722656 101.9375 50.121094 101.9375 L 141.964844 101.9375 C 143.082031 101.9375 144.203125 101.097656 144.203125 99.695312 C 144.203125 98.296875 143.363281 97.457031 142.242188 97.457031 Z M 142.242188 97.457031 "/>
<path style=" stroke:none;fill-rule:nonzero;fill:rgb(11.759949%,21.179199%,36.079407%);fill-opacity:1;" d="M 99.964844 115.097656 L 50.121094 115.097656 C 49.003906 115.097656 47.882812 115.9375 47.882812 117.335938 C 47.882812 118.734375 48.722656 119.578125 50.121094 119.578125 L 99.683594 119.578125 C 100.804688 119.578125 101.921875 118.734375 101.921875 117.335938 C 101.921875 115.9375 101.082031 115.097656 99.964844 115.097656 Z M 99.964844 115.097656 "/>
</g>
</svg>
