<?xml version="1.0" encoding="UTF-8"?>
<svg xmlns="http://www.w3.org/2000/svg" xmlns:xlink="http://www.w3.org/1999/xlink" width="192pt" height="191.999996pt" viewBox="0 0 192 191.999996" version="1.2">
<defs>
<clipPath id="clip1">
  <path d="M 115 12.445312 L 149 12.445312 L 149 46 L 115 46 Z M 115 12.445312 "/>
</clipPath>
<clipPath id="clip2">
  <path d="M 19.199219 162 L 169.796875 162 L 169.796875 179.695312 L 19.199219 179.695312 Z M 19.199219 162 "/>
</clipPath>
<clipPath id="clip3">
  <path d="M 40 12.445312 L 74 12.445312 L 74 46 L 40 46 Z M 40 12.445312 "/>
</clipPath>
<clipPath id="clip4">
  <path d="M 75 12.445312 L 114 12.445312 L 114 38 L 75 38 Z M 75 12.445312 "/>
</clipPath>
</defs>
<g id="surface1">
<g clip-path="url(#clip1)" clip-rule="nonzero">
<path style=" stroke:none;fill-rule:nonzero;fill:rgb(11.759949%,21.179199%,36.079407%);fill-opacity:1;" d="M 115.332031 29.171875 C 115.332031 29.71875 115.359375 30.265625 115.410156 30.808594 C 115.464844 31.355469 115.546875 31.898438 115.652344 32.433594 C 115.757812 32.972656 115.890625 33.5 116.050781 34.027344 C 116.210938 34.550781 116.394531 35.066406 116.605469 35.570312 C 116.8125 36.078125 117.046875 36.570312 117.304688 37.054688 C 117.5625 37.539062 117.84375 38.007812 118.148438 38.460938 C 118.453125 38.917969 118.78125 39.359375 119.128906 39.78125 C 119.476562 40.203125 119.84375 40.609375 120.230469 40.996094 C 120.617188 41.382812 121.023438 41.753906 121.445312 42.097656 C 121.871094 42.445312 122.308594 42.773438 122.765625 43.078125 C 123.21875 43.382812 123.691406 43.664062 124.171875 43.921875 C 124.65625 44.179688 125.152344 44.414062 125.65625 44.621094 C 126.164062 44.832031 126.679688 45.015625 127.203125 45.175781 C 127.726562 45.335938 128.257812 45.46875 128.792969 45.574219 C 129.332031 45.679688 129.871094 45.761719 130.417969 45.816406 C 130.964844 45.867188 131.511719 45.894531 132.058594 45.894531 C 132.605469 45.894531 133.152344 45.867188 133.695312 45.816406 C 134.242188 45.761719 134.785156 45.679688 135.320312 45.574219 C 135.859375 45.46875 136.390625 45.335938 136.914062 45.175781 C 137.4375 45.015625 137.953125 44.832031 138.457031 44.621094 C 138.964844 44.414062 139.460938 44.179688 139.941406 43.921875 C 140.425781 43.664062 140.894531 43.382812 141.351562 43.078125 C 141.804688 42.773438 142.246094 42.445312 142.667969 42.097656 C 143.09375 41.753906 143.496094 41.382812 143.886719 40.996094 C 144.273438 40.609375 144.640625 40.203125 144.988281 39.78125 C 145.335938 39.359375 145.660156 38.917969 145.964844 38.460938 C 146.269531 38.007812 146.550781 37.539062 146.808594 37.054688 C 147.066406 36.570312 147.300781 36.078125 147.511719 35.570312 C 147.722656 35.066406 147.90625 34.550781 148.0625 34.027344 C 148.222656 33.5 148.355469 32.972656 148.464844 32.433594 C 148.570312 31.898438 148.648438 31.355469 148.703125 30.808594 C 148.757812 30.265625 148.785156 29.71875 148.785156 29.171875 C 148.785156 28.625 148.757812 28.078125 148.703125 27.53125 C 148.648438 26.988281 148.570312 26.445312 148.464844 25.90625 C 148.355469 25.371094 148.222656 24.839844 148.0625 24.316406 C 147.90625 23.792969 147.722656 23.277344 147.511719 22.769531 C 147.300781 22.265625 147.066406 21.769531 146.808594 21.285156 C 146.550781 20.804688 146.269531 20.335938 145.964844 19.878906 C 145.660156 19.421875 145.335938 18.984375 144.988281 18.5625 C 144.640625 18.136719 144.273438 17.730469 143.886719 17.34375 C 143.496094 16.957031 143.09375 16.589844 142.667969 16.242188 C 142.246094 15.894531 141.804688 15.570312 141.351562 15.265625 C 140.894531 14.960938 140.425781 14.679688 139.941406 14.421875 C 139.460938 14.164062 138.964844 13.929688 138.457031 13.71875 C 137.953125 13.507812 137.4375 13.324219 136.914062 13.167969 C 136.390625 13.007812 135.859375 12.875 135.320312 12.765625 C 134.785156 12.660156 134.242188 12.582031 133.695312 12.527344 C 133.152344 12.472656 132.605469 12.445312 132.058594 12.445312 C 131.511719 12.445312 130.964844 12.472656 130.417969 12.527344 C 129.871094 12.582031 129.332031 12.660156 128.792969 12.765625 C 128.257812 12.875 127.726562 13.007812 127.203125 13.167969 C 126.679688 13.324219 126.164062 13.507812 125.65625 13.71875 C 125.152344 13.929688 124.65625 14.164062 124.171875 14.421875 C 123.691406 14.679688 123.21875 14.960938 122.765625 15.265625 C 122.308594 15.570312 121.871094 15.894531 121.445312 16.242188 C 121.023438 16.589844 120.617188 16.957031 120.230469 17.34375 C 119.84375 17.730469 119.476562 18.136719 119.128906 18.5625 C 118.78125 18.984375 118.453125 19.421875 118.148438 19.878906 C 117.84375 20.335938 117.5625 20.804688 117.304688 21.285156 C 117.046875 21.769531 116.8125 22.265625 116.605469 22.769531 C 116.394531 23.277344 116.210938 23.792969 116.050781 24.316406 C 115.890625 24.839844 115.757812 25.371094 115.652344 25.90625 C 115.546875 26.445312 115.464844 26.988281 115.410156 27.53125 C 115.359375 28.078125 115.332031 28.625 115.332031 29.171875 Z M 115.332031 29.171875 "/>
</g>
<g clip-path="url(#clip2)" clip-rule="nonzero">
<path style=" stroke:none;fill-rule:nonzero;fill:rgb(11.759949%,21.179199%,36.079407%);fill-opacity:1;" d="M 165.511719 162.972656 L 23.335938 162.972656 C 23.058594 162.972656 22.789062 162.996094 22.519531 163.050781 C 22.25 163.105469 21.988281 163.183594 21.734375 163.289062 C 21.480469 163.394531 21.238281 163.523438 21.011719 163.675781 C 20.78125 163.828125 20.570312 164 20.378906 164.195312 C 20.183594 164.390625 20.011719 164.601562 19.855469 164.828125 C 19.703125 165.058594 19.574219 165.296875 19.472656 165.550781 C 19.367188 165.804688 19.285156 166.066406 19.234375 166.335938 C 19.179688 166.605469 19.152344 166.878906 19.152344 167.152344 L 19.152344 175.515625 C 19.152344 175.789062 19.179688 176.0625 19.234375 176.332031 C 19.285156 176.597656 19.367188 176.859375 19.472656 177.113281 C 19.574219 177.367188 19.703125 177.609375 19.855469 177.835938 C 20.011719 178.066406 20.183594 178.277344 20.378906 178.472656 C 20.570312 178.664062 20.78125 178.839844 21.011719 178.992188 C 21.238281 179.144531 21.480469 179.273438 21.734375 179.378906 C 21.988281 179.484375 22.25 179.5625 22.519531 179.617188 C 22.789062 179.667969 23.058594 179.695312 23.335938 179.695312 L 165.511719 179.695312 C 165.785156 179.695312 166.058594 179.667969 166.328125 179.617188 C 166.597656 179.5625 166.859375 179.484375 167.109375 179.378906 C 167.363281 179.273438 167.605469 179.144531 167.835938 178.992188 C 168.0625 178.839844 168.273438 178.664062 168.46875 178.472656 C 168.660156 178.277344 168.835938 178.066406 168.988281 177.835938 C 169.140625 177.609375 169.269531 177.367188 169.375 177.113281 C 169.480469 176.859375 169.558594 176.597656 169.613281 176.332031 C 169.664062 176.0625 169.691406 175.789062 169.691406 175.515625 L 169.691406 167.152344 C 169.691406 166.878906 169.664062 166.605469 169.613281 166.335938 C 169.558594 166.066406 169.480469 165.804688 169.375 165.550781 C 169.269531 165.296875 169.140625 165.058594 168.988281 164.828125 C 168.835938 164.601562 168.660156 164.390625 168.46875 164.195312 C 168.273438 164 168.0625 163.828125 167.835938 163.675781 C 167.605469 163.523438 167.363281 163.394531 167.109375 163.289062 C 166.859375 163.183594 166.597656 163.105469 166.328125 163.050781 C 166.058594 162.996094 165.785156 162.972656 165.511719 162.972656 Z M 165.511719 162.972656 "/>
</g>
<g clip-path="url(#clip3)" clip-rule="nonzero">
<path style=" stroke:none;fill-rule:nonzero;fill:rgb(11.759949%,21.179199%,36.079407%);fill-opacity:1;" d="M 40.0625 29.171875 C 40.0625 29.71875 40.085938 30.265625 40.140625 30.808594 C 40.195312 31.355469 40.277344 31.898438 40.382812 32.433594 C 40.488281 32.972656 40.621094 33.5 40.78125 34.027344 C 40.941406 34.550781 41.125 35.066406 41.335938 35.570312 C 41.542969 36.078125 41.777344 36.570312 42.035156 37.054688 C 42.292969 37.539062 42.574219 38.007812 42.878906 38.460938 C 43.183594 38.917969 43.511719 39.359375 43.859375 39.78125 C 44.207031 40.203125 44.574219 40.609375 44.960938 40.996094 C 45.347656 41.382812 45.753906 41.753906 46.175781 42.097656 C 46.601562 42.445312 47.039062 42.773438 47.496094 43.078125 C 47.949219 43.382812 48.417969 43.664062 48.902344 43.921875 C 49.386719 44.179688 49.878906 44.414062 50.386719 44.621094 C 50.894531 44.832031 51.40625 45.015625 51.933594 45.175781 C 52.457031 45.335938 52.988281 45.46875 53.523438 45.574219 C 54.0625 45.679688 54.601562 45.761719 55.148438 45.816406 C 55.691406 45.867188 56.238281 45.894531 56.789062 45.894531 C 57.335938 45.894531 57.882812 45.867188 58.425781 45.816406 C 58.972656 45.761719 59.511719 45.679688 60.050781 45.574219 C 60.589844 45.46875 61.117188 45.335938 61.644531 45.175781 C 62.167969 45.015625 62.683594 44.832031 63.1875 44.621094 C 63.695312 44.414062 64.1875 44.179688 64.671875 43.921875 C 65.15625 43.664062 65.625 43.382812 66.082031 43.078125 C 66.535156 42.773438 66.976562 42.445312 67.398438 42.097656 C 67.824219 41.753906 68.226562 41.382812 68.613281 40.996094 C 69.003906 40.609375 69.371094 40.203125 69.71875 39.78125 C 70.066406 39.359375 70.390625 38.917969 70.695312 38.460938 C 71 38.007812 71.28125 37.539062 71.539062 37.054688 C 71.796875 36.570312 72.03125 36.078125 72.242188 35.570312 C 72.449219 35.066406 72.636719 34.550781 72.792969 34.027344 C 72.953125 33.5 73.085938 32.972656 73.191406 32.433594 C 73.300781 31.898438 73.378906 31.355469 73.433594 30.808594 C 73.488281 30.265625 73.515625 29.71875 73.515625 29.171875 C 73.515625 28.625 73.488281 28.078125 73.433594 27.53125 C 73.378906 26.988281 73.300781 26.445312 73.191406 25.90625 C 73.085938 25.371094 72.953125 24.839844 72.792969 24.316406 C 72.636719 23.792969 72.449219 23.277344 72.242188 22.769531 C 72.03125 22.265625 71.796875 21.769531 71.539062 21.285156 C 71.28125 20.804688 71 20.335938 70.695312 19.878906 C 70.390625 19.421875 70.066406 18.984375 69.71875 18.5625 C 69.371094 18.136719 69.003906 17.730469 68.613281 17.34375 C 68.226562 16.957031 67.824219 16.589844 67.398438 16.242188 C 66.976562 15.894531 66.535156 15.570312 66.082031 15.265625 C 65.625 14.960938 65.15625 14.679688 64.671875 14.421875 C 64.1875 14.164062 63.695312 13.929688 63.1875 13.71875 C 62.683594 13.507812 62.167969 13.324219 61.644531 13.167969 C 61.117188 13.007812 60.589844 12.875 60.050781 12.765625 C 59.511719 12.660156 58.972656 12.582031 58.425781 12.527344 C 57.882812 12.472656 57.335938 12.445312 56.789062 12.445312 C 56.238281 12.445312 55.691406 12.472656 55.148438 12.527344 C 54.601562 12.582031 54.0625 12.660156 53.523438 12.765625 C 52.988281 12.875 52.457031 13.007812 51.933594 13.167969 C 51.40625 13.324219 50.894531 13.507812 50.386719 13.71875 C 49.878906 13.929688 49.386719 14.164062 48.902344 14.421875 C 48.417969 14.679688 47.949219 14.960938 47.496094 15.265625 C 47.039062 15.570312 46.601562 15.894531 46.175781 16.242188 C 45.753906 16.589844 45.347656 16.957031 44.960938 17.34375 C 44.574219 17.730469 44.207031 18.136719 43.859375 18.5625 C 43.511719 18.984375 43.183594 19.421875 42.878906 19.878906 C 42.574219 20.335938 42.292969 20.804688 42.035156 21.285156 C 41.777344 21.769531 41.542969 22.265625 41.335938 22.769531 C 41.125 23.277344 40.941406 23.792969 40.78125 24.316406 C 40.621094 24.839844 40.488281 25.371094 40.382812 25.90625 C 40.277344 26.445312 40.195312 26.988281 40.140625 27.53125 C 40.085938 28.078125 40.0625 28.625 40.0625 29.171875 Z M 40.0625 29.171875 "/>
</g>
<path style=" stroke:none;fill-rule:nonzero;fill:rgb(11.759949%,21.179199%,36.079407%);fill-opacity:1;" d="M 56.789062 75.164062 C 53.097656 75.179688 49.511719 75.792969 46.027344 77.003906 C 42.542969 78.214844 39.351562 79.957031 36.449219 82.234375 L 39.566406 47.300781 C 40.136719 47.855469 40.734375 48.375 41.355469 48.871094 C 41.976562 49.363281 42.621094 49.828125 43.285156 50.261719 C 43.953125 50.695312 44.636719 51.09375 45.339844 51.460938 C 46.042969 51.824219 46.765625 52.15625 47.5 52.457031 C 48.238281 52.753906 48.984375 53.015625 49.746094 53.238281 C 50.507812 53.464844 51.277344 53.652344 52.058594 53.804688 C 52.835938 53.957031 53.621094 54.070312 54.410156 54.148438 C 55.203125 54.222656 55.992188 54.261719 56.789062 54.261719 C 57.582031 54.261719 58.375 54.222656 59.164062 54.148438 C 59.953125 54.070312 60.738281 53.957031 61.519531 53.804688 C 62.296875 53.652344 63.066406 53.464844 63.828125 53.238281 C 64.589844 53.015625 65.339844 52.753906 66.074219 52.457031 C 66.8125 52.15625 67.53125 51.824219 68.234375 51.460938 C 68.9375 51.09375 69.625 50.695312 70.289062 50.261719 C 70.957031 49.828125 71.597656 49.363281 72.21875 48.871094 C 72.839844 48.375 73.4375 47.855469 74.007812 47.300781 L 77.125 82.234375 C 74.222656 79.957031 71.03125 78.214844 67.546875 77.003906 C 64.0625 75.792969 60.476562 75.179688 56.789062 75.164062 Z M 56.789062 75.164062 "/>
<path style=" stroke:none;fill-rule:nonzero;fill:rgb(11.759949%,21.179199%,36.079407%);fill-opacity:1;" d="M 31.699219 108.613281 C 31.699219 109.4375 31.738281 110.257812 31.820312 111.074219 C 31.898438 111.890625 32.019531 112.703125 32.179688 113.507812 C 32.339844 114.316406 32.539062 115.109375 32.777344 115.898438 C 33.015625 116.683594 33.292969 117.457031 33.609375 118.214844 C 33.921875 118.972656 34.273438 119.714844 34.660156 120.441406 C 35.046875 121.164062 35.46875 121.871094 35.925781 122.550781 C 36.382812 123.234375 36.871094 123.894531 37.394531 124.53125 C 37.914062 125.164062 38.464844 125.773438 39.046875 126.355469 C 39.628906 126.933594 40.234375 127.484375 40.871094 128.007812 C 41.507812 128.527344 42.164062 129.019531 42.847656 129.472656 C 43.53125 129.929688 44.234375 130.351562 44.960938 130.738281 C 45.683594 131.128906 46.425781 131.476562 47.1875 131.792969 C 47.945312 132.105469 48.71875 132.382812 49.503906 132.621094 C 50.289062 132.859375 51.085938 133.058594 51.894531 133.21875 C 52.699219 133.378906 53.511719 133.5 54.328125 133.582031 C 55.144531 133.660156 55.964844 133.703125 56.789062 133.703125 C 57.609375 133.703125 58.429688 133.660156 59.246094 133.582031 C 60.066406 133.5 60.875 133.378906 61.683594 133.21875 C 62.488281 133.058594 63.285156 132.859375 64.070312 132.621094 C 64.855469 132.382812 65.628906 132.105469 66.390625 131.792969 C 67.148438 131.476562 67.890625 131.128906 68.613281 130.738281 C 69.339844 130.351562 70.042969 129.929688 70.726562 129.472656 C 71.410156 129.019531 72.070312 128.527344 72.703125 128.007812 C 73.339844 127.484375 73.949219 126.933594 74.527344 126.355469 C 75.109375 125.773438 75.660156 125.164062 76.183594 124.53125 C 76.703125 123.894531 77.191406 123.234375 77.648438 122.550781 C 78.105469 121.871094 78.527344 121.164062 78.914062 120.441406 C 79.300781 119.714844 79.652344 118.972656 79.96875 118.214844 C 80.28125 117.457031 80.558594 116.683594 80.796875 115.898438 C 81.035156 115.109375 81.234375 114.316406 81.394531 113.507812 C 81.554688 112.703125 81.675781 111.890625 81.757812 111.074219 C 81.835938 110.257812 81.878906 109.4375 81.878906 108.613281 C 81.878906 107.792969 81.835938 106.972656 81.757812 106.15625 C 81.675781 105.339844 81.554688 104.527344 81.394531 103.71875 C 81.234375 102.914062 81.035156 102.117188 80.796875 101.332031 C 80.558594 100.546875 80.28125 99.773438 79.96875 99.015625 C 79.652344 98.253906 79.300781 97.511719 78.914062 96.789062 C 78.527344 96.0625 78.105469 95.359375 77.648438 94.675781 C 77.191406 93.992188 76.703125 93.335938 76.183594 92.699219 C 75.660156 92.0625 75.109375 91.457031 74.527344 90.875 C 73.949219 90.292969 73.339844 89.742188 72.703125 89.222656 C 72.070312 88.699219 71.410156 88.210938 70.726562 87.753906 C 70.042969 87.296875 69.339844 86.875 68.613281 86.488281 C 67.890625 86.101562 67.148438 85.75 66.390625 85.4375 C 65.628906 85.121094 64.855469 84.847656 64.070312 84.605469 C 63.285156 84.367188 62.488281 84.167969 61.683594 84.007812 C 60.875 83.847656 60.066406 83.726562 59.246094 83.648438 C 58.429688 83.566406 57.609375 83.527344 56.789062 83.527344 C 55.964844 83.527344 55.144531 83.566406 54.328125 83.648438 C 53.511719 83.726562 52.699219 83.847656 51.894531 84.007812 C 51.085938 84.167969 50.289062 84.367188 49.503906 84.605469 C 48.71875 84.847656 47.945312 85.121094 47.1875 85.4375 C 46.425781 85.75 45.683594 86.101562 44.960938 86.488281 C 44.234375 86.875 43.53125 87.296875 42.847656 87.753906 C 42.164062 88.210938 41.507812 88.699219 40.871094 89.222656 C 40.234375 89.742188 39.628906 90.292969 39.046875 90.875 C 38.464844 91.457031 37.914062 92.0625 37.394531 92.699219 C 36.871094 93.335938 36.382812 93.992188 35.925781 94.675781 C 35.46875 95.359375 35.046875 96.0625 34.660156 96.789062 C 34.273438 97.511719 33.921875 98.253906 33.609375 99.015625 C 33.292969 99.773438 33.015625 100.546875 32.777344 101.332031 C 32.539062 102.117188 32.339844 102.914062 32.179688 103.71875 C 32.019531 104.527344 31.898438 105.339844 31.820312 106.15625 C 31.738281 106.972656 31.699219 107.792969 31.699219 108.613281 Z M 31.699219 108.613281 "/>
<path style=" stroke:none;fill-rule:nonzero;fill:rgb(11.759949%,21.179199%,36.079407%);fill-opacity:1;" d="M 77.695312 134.5 L 77.695312 154.609375 L 35.878906 154.609375 L 35.878906 134.5 C 36.605469 135.105469 37.359375 135.675781 38.136719 136.21875 C 38.910156 136.757812 39.710938 137.261719 40.53125 137.730469 C 41.351562 138.203125 42.191406 138.636719 43.050781 139.03125 C 43.90625 139.429688 44.78125 139.789062 45.671875 140.113281 C 46.5625 140.433594 47.460938 140.714844 48.375 140.960938 C 49.289062 141.203125 50.214844 141.40625 51.144531 141.570312 C 52.078125 141.730469 53.011719 141.855469 53.957031 141.9375 C 54.898438 142.019531 55.84375 142.058594 56.789062 142.058594 C 57.734375 142.058594 58.675781 142.019531 59.621094 141.9375 C 60.5625 141.855469 61.5 141.730469 62.429688 141.570312 C 63.363281 141.40625 64.285156 141.203125 65.199219 140.960938 C 66.113281 140.714844 67.015625 140.433594 67.902344 140.113281 C 68.792969 139.789062 69.667969 139.429688 70.527344 139.03125 C 71.382812 138.636719 72.222656 138.203125 73.042969 137.730469 C 73.863281 137.261719 74.664062 136.757812 75.441406 136.21875 C 76.21875 135.675781 76.96875 135.105469 77.695312 134.5 Z M 77.695312 134.5 "/>
<g clip-path="url(#clip4)" clip-rule="nonzero">
<path style=" stroke:none;fill-rule:nonzero;fill:rgb(11.759949%,21.179199%,36.079407%);fill-opacity:1;" d="M 108.601562 37.535156 L 80.320312 37.535156 C 81.332031 34.839844 81.851562 32.050781 81.878906 29.171875 C 81.875 27.636719 81.730469 26.113281 81.445312 24.605469 C 81.160156 23.09375 80.734375 21.625 80.175781 20.195312 C 79.617188 18.765625 78.929688 17.398438 78.117188 16.097656 C 77.304688 14.792969 76.378906 13.578125 75.339844 12.445312 L 113.507812 12.445312 C 112.46875 13.578125 111.539062 14.792969 110.726562 16.097656 C 109.914062 17.398438 109.226562 18.765625 108.667969 20.195312 C 108.109375 21.625 107.6875 23.09375 107.402344 24.605469 C 107.113281 26.113281 106.96875 27.636719 106.96875 29.171875 C 107.027344 32.054688 107.570312 34.839844 108.601562 37.535156 Z M 108.601562 37.535156 "/>
</g>
<path style=" stroke:none;fill-rule:nonzero;fill:rgb(11.759949%,21.179199%,36.079407%);fill-opacity:1;" d="M 143.917969 104.355469 C 143.648438 104.316406 143.382812 104.25 143.125 104.152344 C 142.867188 104.058594 142.621094 103.941406 142.386719 103.796875 C 142.152344 103.652344 141.9375 103.488281 141.734375 103.300781 C 141.535156 103.113281 141.355469 102.910156 141.195312 102.683594 C 141.035156 102.460938 140.902344 102.226562 140.789062 101.972656 C 140.675781 101.722656 140.589844 101.464844 140.53125 101.199219 C 140.472656 100.929688 140.4375 100.660156 140.433594 100.382812 C 140.425781 100.109375 140.449219 99.839844 140.496094 99.566406 L 143.84375 79.347656 L 120.273438 79.347656 L 123.617188 99.566406 C 123.667969 99.839844 123.6875 100.109375 123.683594 100.382812 C 123.675781 100.660156 123.644531 100.929688 123.585938 101.199219 C 123.523438 101.464844 123.4375 101.722656 123.328125 101.972656 C 123.214844 102.226562 123.078125 102.460938 122.917969 102.683594 C 122.757812 102.910156 122.578125 103.113281 122.378906 103.300781 C 122.179688 103.488281 121.960938 103.652344 121.726562 103.796875 C 121.492188 103.941406 121.246094 104.058594 120.992188 104.152344 C 120.734375 104.25 120.46875 104.316406 120.195312 104.355469 C 119.972656 104.421875 119.746094 104.445312 119.511719 104.433594 C 119.019531 104.433594 118.539062 104.351562 118.074219 104.179688 C 117.609375 104.011719 117.1875 103.765625 116.8125 103.445312 C 116.4375 103.125 116.128906 102.746094 115.886719 102.316406 C 115.644531 101.882812 115.484375 101.425781 115.40625 100.9375 L 111.226562 75.847656 C 111.113281 75.246094 111.136719 74.648438 111.296875 74.054688 C 111.457031 73.460938 111.738281 72.933594 112.136719 72.464844 C 112.535156 71.996094 113.011719 71.632812 113.570312 71.371094 C 114.128906 71.113281 114.714844 70.984375 115.332031 70.984375 L 127.875 70.984375 L 127.875 53.839844 C 129.257812 54.097656 130.652344 54.234375 132.058594 54.257812 C 133.464844 54.234375 134.855469 54.097656 136.238281 53.839844 L 136.238281 70.984375 L 148.785156 70.984375 C 149.398438 70.984375 149.988281 71.113281 150.542969 71.371094 C 151.101562 71.632812 151.582031 71.996094 151.976562 72.464844 C 152.378906 72.933594 152.65625 73.460938 152.816406 74.054688 C 152.976562 74.648438 153 75.246094 152.890625 75.847656 L 148.707031 100.9375 C 148.664062 101.207031 148.59375 101.46875 148.5 101.726562 C 148.402344 101.980469 148.28125 102.226562 148.136719 102.457031 C 147.992188 102.691406 147.828125 102.90625 147.640625 103.105469 C 147.453125 103.308594 147.25 103.484375 147.027344 103.644531 C 146.804688 103.804688 146.566406 103.941406 146.316406 104.050781 C 146.070312 104.164062 145.808594 104.25 145.542969 104.3125 C 145.277344 104.375 145.007812 104.40625 144.734375 104.414062 C 144.460938 104.421875 144.1875 104.402344 143.917969 104.355469 Z M 143.917969 104.355469 "/>
</g>
</svg>
