<svg width="19" height="19" viewBox="0 0 19 19" fill="none" xmlns="http://www.w3.org/2000/svg">
<path d="M6.11934 0.913727C5.83359 0.223493 5.08027 -0.14389 4.36035 0.0527899L1.09473 0.943415C0.449023 1.12154 0 1.70787 0 2.37584C0 11.5567 7.44414 19.0008 16.625 19.0008C17.293 19.0008 17.8793 18.5518 18.0574 17.9061L18.948 14.6405C19.1447 13.9206 18.7773 13.1672 18.0871 12.8815L14.5246 11.3971C13.9197 11.1448 13.2184 11.3192 12.8064 11.8276L11.3072 13.6571C8.69473 12.4213 6.57949 10.3061 5.34375 7.69361L7.17324 6.1981C7.68164 5.78248 7.85605 5.08482 7.60371 4.47994L6.11934 0.913727Z" fill="black"/>
</svg>
