<svg width="25" height="19" viewBox="0 0 25 19" fill="none" xmlns="http://www.w3.org/2000/svg">
<path d="M3.125 2.375C2.69531 2.375 2.34375 2.73125 2.34375 3.16667V4.26016L10.7666 11.2664C11.7773 12.1076 13.2275 12.1076 14.2383 11.2664L22.6562 4.26016V3.16667C22.6562 2.73125 22.3047 2.375 21.875 2.375H3.125ZM2.34375 7.33281V15.8333C2.34375 16.2688 2.69531 16.625 3.125 16.625H21.875C22.3047 16.625 22.6562 16.2688 22.6562 15.8333V7.33281L15.7227 13.1021C13.8477 14.6607 11.1475 14.6607 9.27734 13.1021L2.34375 7.33281ZM0 3.16667C0 1.42005 1.40137 0 3.125 0H21.875C23.5986 0 25 1.42005 25 3.16667V15.8333C25 17.5799 23.5986 19 21.875 19H3.125C1.40137 19 0 17.5799 0 15.8333V3.16667Z" fill="black"/>
</svg>
