<?xml version="1.0" encoding="utf-8"?>
<!-- Generator: Adobe Illustrator 26.0.3, SVG Export Plug-In . SVG Version: 6.00 Build 0)  -->
<svg version="1.1" id="Layer_1" xmlns="http://www.w3.org/2000/svg" xmlns:xlink="http://www.w3.org/1999/xlink" x="0px" y="0px"
	 viewBox="190 0 529 167" style="enable-background:new 0 0 909 167;" xml:space="preserve">
<style type="text/css">
	.st0{fill:#222222;}
</style>
<g>
	<g>
		<path class="st0" d="M225.66,89.39c-5.1,0-9.55-0.54-13.36-1.62c-3.81-1.08-7.02-2.62-9.61-4.61c-2.6-2-4.58-4.41-5.96-7.23
			c-1.38-2.82-2.18-6-2.41-9.54h5.44c0.55,3.4,1.58,6.22,3.1,8.47c1.52,2.25,3.39,4.04,5.61,5.37c2.23,1.33,4.76,2.27,7.61,2.82
			c2.85,0.55,5.88,0.83,9.09,0.83c3.35,0,6.37-0.36,9.06-1.07c2.69-0.71,4.98-1.74,6.89-3.1c1.91-1.35,3.36-2.98,4.37-4.89
			c1.01-1.9,1.52-4.05,1.52-6.44c0-2.52-0.44-4.65-1.31-6.37c-0.87-1.72-2.34-3.23-4.41-4.51c-2.07-1.29-4.79-2.43-8.16-3.44
			c-3.37-1.01-7.57-2.04-12.57-3.1c-4.13-0.92-7.68-1.97-10.64-3.17c-2.96-1.19-5.41-2.58-7.34-4.17s-3.35-3.4-4.27-5.44
			c-0.92-2.04-1.38-4.42-1.38-7.13c0-2.94,0.62-5.62,1.86-8.06c1.24-2.43,3-4.52,5.27-6.27c2.27-1.74,5-3.1,8.2-4.06
			c3.19-0.96,6.72-1.45,10.57-1.45c3.86,0,7.39,0.45,10.61,1.34c3.21,0.9,6.03,2.19,8.44,3.89c2.41,1.7,4.36,3.77,5.85,6.2
			c1.49,2.43,2.45,5.19,2.86,8.27h-5.3c-0.51-2.02-1.33-3.9-2.48-5.65c-1.15-1.74-2.63-3.25-4.44-4.51
			c-1.81-1.26-3.97-2.25-6.47-2.96c-2.5-0.71-5.36-1.07-8.58-1.07c-6.75,0-11.86,1.24-15.33,3.72c-3.47,2.48-5.2,5.88-5.2,10.19
			c0,1.98,0.32,3.7,0.96,5.17c0.64,1.47,1.73,2.79,3.27,3.96c1.54,1.17,3.57,2.2,6.1,3.1c2.52,0.9,5.67,1.73,9.44,2.51
			c2.2,0.46,4.48,0.94,6.82,1.45c2.34,0.51,4.63,1.1,6.85,1.79c2.23,0.69,4.35,1.54,6.37,2.55c2.02,1.01,3.78,2.25,5.27,3.72
			c1.49,1.47,2.69,3.23,3.58,5.27c0.9,2.04,1.34,4.47,1.34,7.27c0,3.21-0.68,6.16-2.03,8.85c-1.36,2.69-3.24,5.01-5.65,6.96
			c-2.41,1.95-5.28,3.47-8.61,4.55C233.17,88.85,229.56,89.39,225.66,89.39z"/>
		<path class="st0" d="M285.29,33.26c3.63,0,6.91,0.63,9.85,1.89c2.94,1.26,5.44,3.1,7.51,5.51c2.07,2.41,3.65,5.35,4.75,8.82
			c1.1,3.47,1.65,7.38,1.65,11.74c0,4.45-0.56,8.43-1.69,11.92c-1.13,3.49-2.72,6.44-4.79,8.85c-2.07,2.41-4.57,4.25-7.51,5.51
			c-2.94,1.26-6.2,1.89-9.78,1.89c-3.58,0-6.83-0.62-9.75-1.86c-2.92-1.24-5.41-3.07-7.47-5.48c-2.07-2.41-3.67-5.36-4.82-8.85
			c-1.15-3.49-1.72-7.48-1.72-11.98c0-4.41,0.56-8.35,1.69-11.81c1.12-3.47,2.72-6.39,4.79-8.78c2.07-2.39,4.57-4.21,7.51-5.48
			C278.45,33.89,281.71,33.26,285.29,33.26z M285.29,83.88c2.71,0,5.18-0.47,7.4-1.41c2.23-0.94,4.14-2.36,5.75-4.27
			c1.61-1.91,2.86-4.27,3.75-7.09c0.9-2.82,1.34-6.12,1.34-9.88c0-3.72-0.45-6.99-1.34-9.82c-0.9-2.82-2.15-5.17-3.75-7.03
			c-1.61-1.86-3.52-3.26-5.75-4.2c-2.23-0.94-4.7-1.41-7.4-1.41c-2.76,0-5.25,0.47-7.47,1.41c-2.23,0.94-4.14,2.34-5.75,4.2
			c-1.61,1.86-2.85,4.2-3.72,7.03c-0.87,2.82-1.31,6.1-1.31,9.82c0,3.77,0.44,7.06,1.31,9.88c0.87,2.82,2.11,5.19,3.72,7.09
			c1.61,1.91,3.52,3.33,5.75,4.27C280.05,83.41,282.54,83.88,285.29,83.88z"/>
		<path class="st0" d="M325.99,88.02h-5.51V12.59h5.51V88.02z"/>
		<path class="st0" d="M361.79,89.39c-3.72,0-7.09-0.63-10.13-1.89c-3.03-1.26-5.64-3.1-7.82-5.51c-2.18-2.41-3.87-5.36-5.06-8.85
			c-1.19-3.49-1.79-7.46-1.79-11.92c0-4.32,0.57-8.21,1.72-11.68c1.15-3.47,2.78-6.41,4.89-8.82c2.11-2.41,4.62-4.26,7.51-5.55
			c2.89-1.29,6.11-1.93,9.64-1.93c3.63,0,6.91,0.64,9.85,1.93c2.94,1.29,5.44,3.13,7.51,5.55c2.07,2.41,3.65,5.35,4.75,8.82
			c1.1,3.47,1.65,7.38,1.65,11.74v1.24h-42.02c0.28,3.63,0.94,6.77,2,9.44c1.06,2.66,2.43,4.88,4.13,6.65
			c1.7,1.77,3.66,3.09,5.89,3.96c2.23,0.87,4.65,1.31,7.27,1.31c1.84,0,3.67-0.22,5.51-0.65c1.84-0.44,3.5-1.09,4.99-1.96
			c1.49-0.87,2.74-1.95,3.75-3.24c1.01-1.29,1.61-2.75,1.79-4.41h5.44c-0.51,2.53-1.4,4.77-2.69,6.72
			c-1.29,1.95-2.87,3.61-4.75,4.96c-1.88,1.36-4.02,2.38-6.41,3.07C367.05,89.05,364.5,89.39,361.79,89.39z M378.94,57.02
			c-0.92-6.11-3-10.68-6.23-13.71c-3.24-3.03-7.22-4.55-11.95-4.55c-2.34,0-4.52,0.37-6.54,1.1c-2.02,0.73-3.82,1.86-5.41,3.37
			c-1.58,1.52-2.92,3.42-4,5.72c-1.08,2.3-1.85,4.98-2.31,8.06H378.94z"/>
		<path class="st0" d="M419.91,38.9c-0.51-0.09-1.06-0.14-1.65-0.14c-0.55,0-1.22,0-2,0c-1.56,0-3.08,0.32-4.55,0.96
			c-1.47,0.64-2.87,1.48-4.2,2.51c-1.33,1.03-2.57,2.2-3.72,3.51c-1.15,1.31-2.13,2.65-2.96,4.03v38.23h-5.51V34.63h5.51V42
			c1.56-1.84,3.11-3.33,4.65-4.48c1.54-1.15,3.03-2.04,4.48-2.69c1.45-0.64,2.83-1.07,4.17-1.27c1.33-0.21,2.55-0.31,3.65-0.31
			c0.37,0,0.71,0.01,1.03,0.03c0.32,0.02,0.69,0.06,1.1,0.1V38.9z"/>
		<path class="st0" d="M460.56,47.11l-14.88,41.64c-0.92,2.46-1.84,4.63-2.77,6.49c-0.93,1.87-1.94,3.43-3.03,4.7
			c-1.09,1.27-2.3,2.22-3.62,2.85c-1.32,0.63-2.79,0.95-4.41,0.95c-0.56,0-1.11-0.02-1.64-0.05c-0.53-0.04-1.06-0.09-1.58-0.16V99
			c0.28,0.04,0.58,0.05,0.9,0.05c0.32,0,0.65,0,1,0c2.43,0,4.5-0.84,6.23-2.51c1.72-1.67,3.24-4.39,4.54-8.15l-15.57-41.27h4.64
			l13.35,35.68l12.24-35.68H460.56z"/>
		<path class="st0" d="M520.49,88.02h-44.43V12.59h5.51v69.91h38.92V88.02z"/>
		<path class="st0" d="M537.01,88.02h-5.51V12.59h5.51V88.02z"/>
		<path class="st0" d="M586.31,81.13c-1.88,1.65-3.72,3.02-5.51,4.1c-1.79,1.08-3.55,1.93-5.27,2.55c-1.72,0.62-3.43,1.04-5.13,1.27
			c-1.7,0.23-3.42,0.34-5.17,0.34c-2.34,0-4.52-0.36-6.54-1.07c-2.02-0.71-3.77-1.72-5.23-3.03c-1.47-1.31-2.63-2.89-3.48-4.75
			c-0.85-1.86-1.27-3.91-1.27-6.16c0-6.11,2.61-10.86,7.82-14.26c5.21-3.4,13.03-5.1,23.45-5.1h6.34c0-2.34-0.14-4.5-0.41-6.47
			c-0.28-1.97-0.92-3.69-1.93-5.13c-1.01-1.45-2.5-2.58-4.48-3.41c-1.98-0.83-4.66-1.24-8.06-1.24c-5.01,0-8.76,0.78-11.26,2.34
			c-2.5,1.56-3.98,3.93-4.44,7.09h-5.44c0.55-5.05,2.52-8.8,5.92-11.26c3.4-2.46,8.45-3.68,15.15-3.68c3.72,0,6.88,0.46,9.47,1.38
			c2.59,0.92,4.71,2.24,6.34,3.96c1.63,1.72,2.81,3.81,3.55,6.27c0.73,2.46,1.1,5.22,1.1,8.3v34.85h-5.51V81.13z M586.31,60.53
			h-8.33c-7.99,0-13.95,1.15-17.87,3.44c-3.93,2.3-5.89,5.58-5.89,9.85c0,3.17,1.24,5.64,3.72,7.4c2.48,1.77,5.88,2.65,10.2,2.65
			c1.88,0,3.71-0.29,5.48-0.86c1.77-0.57,3.43-1.32,4.99-2.24c1.56-0.92,3-1.94,4.3-3.07c1.31-1.12,2.45-2.21,3.41-3.27V60.53z"/>
		<path class="st0" d="M627.08,89.39c-3.54,0-6.76-0.62-9.68-1.86c-2.92-1.24-5.42-3.05-7.51-5.44c-2.09-2.39-3.71-5.33-4.86-8.82
			c-1.15-3.49-1.72-7.48-1.72-11.99c0-4.41,0.56-8.36,1.69-11.85c1.12-3.49,2.73-6.43,4.82-8.82c2.09-2.39,4.59-4.21,7.51-5.48
			c2.92-1.26,6.16-1.89,9.75-1.89c2.57,0,4.97,0.34,7.2,1.03c2.23,0.69,4.2,1.7,5.92,3.03c1.72,1.33,3.17,2.99,4.34,4.96
			c1.17,1.98,1.99,4.23,2.45,6.75h-5.37c-0.23-1.65-0.75-3.12-1.55-4.41c-0.8-1.29-1.85-2.36-3.13-3.24
			c-1.29-0.87-2.77-1.53-4.44-1.96c-1.68-0.44-3.48-0.65-5.41-0.65c-2.71,0-5.19,0.47-7.44,1.41c-2.25,0.94-4.18,2.35-5.79,4.24
			c-1.61,1.88-2.85,4.24-3.72,7.06c-0.87,2.82-1.31,6.1-1.31,9.82c0,3.77,0.44,7.06,1.31,9.88c0.87,2.82,2.11,5.18,3.72,7.06
			c1.61,1.88,3.54,3.3,5.79,4.24c2.25,0.94,4.73,1.41,7.44,1.41c1.79,0,3.51-0.22,5.17-0.65c1.65-0.44,3.13-1.08,4.44-1.93
			c1.31-0.85,2.4-1.91,3.27-3.17c0.87-1.26,1.42-2.74,1.65-4.44h5.37c-0.51,2.57-1.34,4.83-2.51,6.79
			c-1.17,1.95-2.62,3.59-4.34,4.92c-1.72,1.33-3.7,2.33-5.92,3C631.98,89.06,629.6,89.39,627.08,89.39z"/>
		<path class="st0" d="M661.16,42.56c1.74-1.97,3.45-3.58,5.13-4.82c1.68-1.24,3.31-2.18,4.89-2.82c1.58-0.64,3.1-1.08,4.55-1.31
			c1.45-0.23,2.81-0.34,4.1-0.34c10.97,0,16.46,6.47,16.46,19.42v35.34h-5.51V53.16c0-2.48-0.22-4.63-0.65-6.44
			c-0.44-1.81-1.15-3.31-2.14-4.48c-0.99-1.17-2.27-2.04-3.86-2.62c-1.58-0.57-3.52-0.86-5.82-0.86c-3.03,0-5.94,0.9-8.71,2.69
			c-2.78,1.79-5.59,4.32-8.44,7.58v38.99h-5.51V12.59h5.51V42.56z"/>
	</g>
</g>
<g>
	<path class="st0" d="M235.19,151.93h-12.03l-2.39,5.62h-3.73l10.5-24.2h3.24l10.46,24.2h-3.7L235.19,151.93z M233.98,149.05
		l-4.81-11.41l-4.81,11.41H233.98z"/>
	<path class="st0" d="M283.28,148.66v-15.3h3.47v15.17c0,3.86,2.71,6.47,6.8,6.47c4.02,0,6.74-2.62,6.74-6.47v-15.17h3.5v15.3
		c0,5.56-4.09,9.22-10.23,9.22C287.4,157.88,283.28,154.22,283.28,148.66z"/>
	<path class="st0" d="M348.05,145.39c0-7.42,5-12.36,12.49-12.36c3.96,0,7.03,1.41,9.32,3.92l-2.19,2.22
		c-1.54-1.9-3.92-3.27-7.03-3.27c-5.4,0-8.96,3.79-8.96,9.48c0,5.75,3.6,9.61,8.93,9.61c3.47,0,5.98-1.6,7.62-4.05l2.39,2.16
		c-2.26,3.01-5.72,4.77-10.04,4.77C353.09,157.88,348.05,152.88,348.05,145.39z"/>
	<path class="st0" d="M430.25,136.23h-7.59v21.32h-3.5v-21.32h-7.59v-2.88h18.67V136.23z"/>
	<path class="st0" d="M473.71,133.36h3.5v24.2h-3.5V133.36z"/>
	<path class="st0" d="M521.77,145.46c0-7.46,4.97-12.43,12.39-12.43c7.39,0,12.36,4.97,12.36,12.43c0,7.46-4.97,12.43-12.36,12.43
		C526.74,157.88,521.77,152.91,521.77,145.46z M542.93,145.46c0-5.72-3.53-9.55-8.76-9.55c-5.26,0-8.76,3.83-8.76,9.55
		s3.5,9.55,8.76,9.55C539.39,155,542.93,151.18,542.93,145.46z"/>
	<path class="st0" d="M591.09,133.36h2.19l16.09,18.25l-0.1-18.25h3.5v24.2h-2.19l-16.06-18.25l0.07,18.25h-3.5V133.36z"/>
	<path class="st0" d="M657.75,154.97l1.37-2.39c1.93,1.73,4.25,2.42,6.64,2.42c3.47,0,5.59-1.41,5.59-3.66
		c0-2.39-2.35-3.43-5.72-4.41l-1.5-0.43c-3.66-1.01-6.61-2.62-6.61-6.51c0-4.19,3.43-6.96,8.6-6.96c3.17,0,5.75,0.95,7.81,2.78
		l-1.57,2.42c-1.73-1.54-3.73-2.32-6.25-2.32c-3.01,0-4.97,1.44-4.97,3.56c0,2.32,2.12,3.17,4.61,3.89l1.57,0.42
		c3.6,1.05,7.65,2.88,7.65,7.23c0,4.12-3.63,6.87-9.03,6.87C662.76,157.88,659.75,156.93,657.75,154.97z"/>
</g>
</svg>
