<svg id="Capa_1" data-name="Capa 1" xmlns="http://www.w3.org/2000/svg" viewBox="0 0 311.45 65.28"><defs><style>.cls-1{fill:#009fe3;}.cls-2{fill:#3c3c3b;}</style></defs><path class="cls-1" d="M85.68,38.88a13.65,13.65,0,0,0-7.78-5c2.95-1.22,4.34-3.21,5.88-5.41A12.86,12.86,0,0,0,86.08,21q0-8.12-5.5-12.21C76.92,6.08,72.4,4.66,65.39,4.66H62.82V0h-1L57.34,14h8c3.69,0,6,.57,7.72,1.9s2.62,3.47,2.62,6.46a7.48,7.48,0,0,1-2.84,6.27c-1.88,1.49-3.94,1.76-7.28,1.76H55.83V18.64L46.52,47.46V65.28H66.79q10.44,0,16-4.57c3.74-3,5.61-7.37,5.61-13A14.23,14.23,0,0,0,85.68,38.88ZM74.84,53.5c-1.91,1.61-4.54,2.42-7.92,2.42H55.83V37.28h12c6.58.14,10.09,3.28,10.09,9.47A8.54,8.54,0,0,1,74.84,53.5Z"/><path class="cls-2" d="M32.55,58.23v7h.69L44.19,31.18v-.95H23.26l0,7.05H34.87l0,10.2C33.21,50,29,51.26,24,51.26A12.4,12.4,0,0,1,13.48,46.1C11,42.66,9.27,37.82,9.27,31.6V27.17c.09-6.26,1.66-11,3.92-14.22s5.54-4.86,9.86-4.86c6.69,0,10.62,3.6,11.69,10.55h9.45c-.72-6-2.95-10.68-6.61-13.87S29.05,0,22.87,0C15.66,0,10.05,2.47,6,7.35S0,19.06,0,27.77v4.52A33.74,33.74,0,0,0,3,46.57,21.44,21.44,0,0,0,11.33,56,23.4,23.4,0,0,0,23.7,59.27,31.37,31.37,0,0,0,32.55,58.23Z"/><polygon class="cls-2" points="101.22 65.26 97.73 65.26 119 0.02 122.09 0.02 101.22 65.26"/><path class="cls-2" d="M140.69,51.92a8.69,8.69,0,0,1-4,2.93,15.78,15.78,0,0,1-6,1,9.85,9.85,0,0,1-4.9-1.31,8.91,8.91,0,0,1-3.35-3.62A13.13,13.13,0,0,1,121,45.58a24.6,24.6,0,0,1,.15-3.84,19.25,19.25,0,0,1,2.46-7.23,13.36,13.36,0,0,1,4.68-4.86,11.19,11.19,0,0,1,6-1.58,9.2,9.2,0,0,1,6.3,2.24,9,9,0,0,1,2.67,6.07h-3.41q-.51-5.25-5.69-5.4a7.33,7.33,0,0,0-4.93,1.66,12,12,0,0,0-3.51,5,17.57,17.57,0,0,0-1.31,7,12,12,0,0,0,.74,4.25,6.47,6.47,0,0,0,2.19,3,5.92,5.92,0,0,0,3.44,1.06,9.14,9.14,0,0,0,6.44-2l1.1-6.06h-6l.52-2.87h9.42Z"/><path class="cls-2" d="M145.41,51.88a1.87,1.87,0,0,1,2,2,1.94,1.94,0,0,1-.6,1.42,2.11,2.11,0,0,1-1.43.58,1.83,1.83,0,0,1-1.41-.49,1.85,1.85,0,0,1-.55-1.41,2,2,0,0,1,2-2.07Z"/><path class="cls-2" d="M151.74,55.82,156.55,28l8.13,0q4.23,0,6.35,1.91a6.14,6.14,0,0,1,1.85,5.33q-.34,4-5,6a5.18,5.18,0,0,1,2.79,2.48,7,7,0,0,1,.75,3.88,8.1,8.1,0,0,1-3,6,10.79,10.79,0,0,1-7,2.2Zm5.82-13-1.73,10h5.65a6.74,6.74,0,0,0,4.34-1.39,5.45,5.45,0,0,0,2-3.75,4.45,4.45,0,0,0-.78-3.51,4.25,4.25,0,0,0-3.29-1.34Zm.51-3,5.16,0a6.62,6.62,0,0,0,4.08-1.24,4.88,4.88,0,0,0,1.95-3.43,3.49,3.49,0,0,0-.79-3.06A5,5,0,0,0,165,31l-5.44,0Z"/><path class="cls-2" d="M184.71,55.5a4.08,4.08,0,0,1-.13-1l0-1a7.9,7.9,0,0,1-5.65,2.4,5.81,5.81,0,0,1-4.15-1.62,4.93,4.93,0,0,1-1.46-4,6,6,0,0,1,2.69-4.81,11.48,11.48,0,0,1,6.61-1.73l3.38,0,.21-1.54a3.57,3.57,0,0,0-.67-2.75A3.28,3.28,0,0,0,183,38.41a5,5,0,0,0-2.94.82,3.48,3.48,0,0,0-1.56,2.25l-3.26,0a5.19,5.19,0,0,1,1.33-3,7.62,7.62,0,0,1,3-2,9.41,9.41,0,0,1,3.77-.69,6.42,6.42,0,0,1,4.71,1.83,5.71,5.71,0,0,1,1.41,4.69l-1.58,9.59-.08,1.38a6.52,6.52,0,0,0,.21,2l0,.3ZM179.63,53a5.6,5.6,0,0,0,2.94-.74A7.53,7.53,0,0,0,185,50.09l.69-4-2.45,0a9.2,9.2,0,0,0-4.68,1,3.52,3.52,0,0,0-1.84,2.74,2.76,2.76,0,0,0,.63,2.26A3,3,0,0,0,179.63,53Z"/><path class="cls-2" d="M204,38.84l-1.57-.17a5.72,5.72,0,0,0-5.07,2.91l-2.46,14.25h-3.35l3.48-20,3.23,0-.5,2.33a6,6,0,0,1,5-2.72,5.91,5.91,0,0,1,1.59.28Z"/><path class="cls-2" d="M215,31l-.84,4.78h3.59l-.46,2.61h-3.57l-2.06,12.28a5.15,5.15,0,0,0,0,.87A1.39,1.39,0,0,0,213.18,53a9.65,9.65,0,0,0,1.61-.18l-.26,2.76a9.31,9.31,0,0,1-2.4.32,3.41,3.41,0,0,1-2.95-1.45,5.61,5.61,0,0,1-.77-3.8l2-12.22h-3.47l.45-2.61h3.48l.84-4.78Z"/><path class="cls-2" d="M227.56,35.79a7,7,0,0,1,4.17,1.32,7.55,7.55,0,0,1,2.56,3.56,11.06,11.06,0,0,1,.57,4.95l0,.39a13.23,13.23,0,0,1-1.68,5.12,9.93,9.93,0,0,1-3.47,3.55,8.4,8.4,0,0,1-4.66,1.2,7,7,0,0,1-4.16-1.32,7.4,7.4,0,0,1-2.55-3.51,11.19,11.19,0,0,1-.57-4.89,13.31,13.31,0,0,1,1.62-5.41,10.21,10.21,0,0,1,3.5-3.72A8.31,8.31,0,0,1,227.56,35.79ZM221,46.17a11.53,11.53,0,0,0,0,2.35,5.78,5.78,0,0,0,1.26,3.37,3.78,3.78,0,0,0,2.89,1.3,5.19,5.19,0,0,0,3-.79,6.71,6.71,0,0,0,2.28-2.57,10.89,10.89,0,0,0,1.2-3.82,16.67,16.67,0,0,0,.06-2.77,6,6,0,0,0-1.31-3.42,3.84,3.84,0,0,0-2.89-1.33,5.29,5.29,0,0,0-4.26,2,9.71,9.71,0,0,0-2.16,5.3Z"/><path class="cls-2" d="M239.18,55.82h-3.25l4.8-27.74H244Z"/><path class="cls-2" d="M254.45,35.77a6.9,6.9,0,0,1,4.16,1.32,7.57,7.57,0,0,1,2.57,3.56,11.06,11.06,0,0,1,.56,5l0,.39A12.85,12.85,0,0,1,260,51.11a9.91,9.91,0,0,1-3.46,3.55,8.43,8.43,0,0,1-4.67,1.2,7,7,0,0,1-4.16-1.32A7.32,7.32,0,0,1,245.19,51a11.34,11.34,0,0,1-.58-4.89,13.17,13.17,0,0,1,1.63-5.41,10.13,10.13,0,0,1,3.5-3.72A8.37,8.37,0,0,1,254.45,35.77Zm-6.58,10.39a10.17,10.17,0,0,0,0,2.34,5.78,5.78,0,0,0,1.26,3.37A3.81,3.81,0,0,0,252,53.18a5.15,5.15,0,0,0,3-.8,6.65,6.65,0,0,0,2.29-2.57,10.89,10.89,0,0,0,1.2-3.82,17.66,17.66,0,0,0,0-2.77,6,6,0,0,0-1.3-3.42,3.88,3.88,0,0,0-2.9-1.33,5.26,5.26,0,0,0-4.25,2,9.79,9.79,0,0,0-2.17,5.3Z"/><path class="cls-2" d="M269.57,36.16l-.42,2.2a7.67,7.67,0,0,1,6-2.55,6,6,0,0,1,3.17.86A4.11,4.11,0,0,1,280.08,39a8.11,8.11,0,0,1,6.52-3.17,5.2,5.2,0,0,1,4.34,2,7.08,7.08,0,0,1,1,5.13l-2.16,12.94h-3.27l2.14-13a7.14,7.14,0,0,0,0-1.73c-.23-1.65-1.31-2.49-3.23-2.53a5,5,0,0,0-3.26,1.12,5.16,5.16,0,0,0-1.88,3l-2.23,13.08h-3.31l2.18-13a4.19,4.19,0,0,0-.61-3.12,3.2,3.2,0,0,0-2.62-1.12,5.37,5.37,0,0,0-4.89,2.8l-2.49,14.39h-3.29l3.42-19.69Z"/><path class="cls-2" d="M302.35,55.84a6.94,6.94,0,0,1-5.65-2.66A9.22,9.22,0,0,1,295,46.53l.09-.77a12.8,12.8,0,0,1,1.71-5.26,10,10,0,0,1,3.42-3.59,8,8,0,0,1,4.37-1.16,6.13,6.13,0,0,1,4.68,2,8.22,8.22,0,0,1,1.86,5.19,16.45,16.45,0,0,1-.07,2.33l-.2,1.49H298.2a6.58,6.58,0,0,0,.87,4.47,4.1,4.1,0,0,0,3.55,1.92,6.87,6.87,0,0,0,5.29-2.58l1.86,1.58a8.6,8.6,0,0,1-3.14,2.75A8.83,8.83,0,0,1,302.35,55.84Zm2-17.38a4.67,4.67,0,0,0-3.49,1.36A9.63,9.63,0,0,0,298.54,44h9.4l.07-.28a5.26,5.26,0,0,0-.72-3.75A3.37,3.37,0,0,0,304.4,38.46ZM307.32,28h4.13L306,33.24h-2.84Z"/></svg>