<?xml version="1.0" encoding="utf-8"?>
<!-- Generator: Adobe Illustrator 25.4.1, SVG Export Plug-In . SVG Version: 6.00 Build 0)  -->
<svg version="1.1" id="Capa_1" xmlns="http://www.w3.org/2000/svg" xmlns:xlink="http://www.w3.org/1999/xlink" x="0px" y="0px"
	 viewBox="0 0 512 512" style="enable-background:new 0 0 512 512;" xml:space="preserve">
<style type="text/css">
	.st0{fill:#FFFFFF;}
	.st1{fill:#009FE3;}
	.st2{fill:#3C3C3B;}
</style>
<g id="Capa_2_00000085958508989714362350000013597007328005751447_">
	<path class="st0" d="M476.7,512H35.3C15.8,512,0,496.2,0,476.7V35.3C0,15.8,15.8,0,35.3,0h441.3C496.2,0,512,15.8,512,35.3v441.3
		C512,496.2,496.2,512,476.7,512z"/>
	<g id="Simbolo_color">
		<path class="st1" d="M467.6,287.8c-9.9-12.8-24-21.7-39.8-25.2c15.3-6.2,22.2-16.4,30-27.7c7.8-11.2,11.9-24.5,11.7-38
			c0-27.6-9.3-48.4-28-62.3c-18.7-13.9-41.8-21.1-77.5-21.1h-13v-24h-4.7L323,160.8h40.7c18.8,0,30.6,2.9,39.4,9.7
			c8.8,6.8,13.3,17.8,13.3,33c0.7,12.4-4.7,24.3-14.4,32c-9.7,7.6-20.4,9-37.2,9h-49.4v-59.8l-47.6,147v90.9h103.4
			c35.5,0,62.6-7.8,81.5-23.3c19-15.3,28.6-37.6,28.6-66.6C481.9,316.6,477.1,300.8,467.6,287.8z M412.5,362.4
			c-9.9,8.2-23.3,12.3-40.7,12.3h-56.4v-95h61.1c33.6,0.7,51.5,16.5,51.5,48.1C428.4,341,422.7,353.8,412.5,362.4z"/>
		<path class="st2" d="M196.6,386.6v35.7h3.5l56-173.8v-4.8h-107v36h59.2v52.1c-8.6,12.7-30.2,19.3-55.4,19.3
			c-21.2,0.8-41.3-9-53.7-26.2c-12.7-17.6-21.4-42.3-21.4-74v-22.6c0.4-31.9,8.4-56,20-72.5s28.3-24.8,50.3-24.8
			c34.1,0,54.1,18.4,59.6,53.8H256c-3.7-30.6-15.3-54.5-33.7-70.7s-43.6-24.3-75.1-24.3c-36.8,0-65.4,12.6-85.9,37.5
			s-30.8,59.8-30.8,104.2v23.1c-0.2,25.1,5.1,50,15.5,72.8c9,19.9,23.7,36.6,42.3,48c19.1,11.4,40.9,17.2,63.1,16.8
			C166.7,392.3,181.9,390.5,196.6,386.6z"/>
	</g>
</g>
</svg>
