<svg xmlns="http://www.w3.org/2000/svg" viewBox="0 0 64 64" width="64" height="64">
	<style>
		tspan { white-space:pre }
		.shp0 { fill: #b79d81 } 
		.shp1 { fill: #83715e } 
		.shp2 { fill: #b79d81;stroke: #83715e;stroke-opacity:0.95 } 
	</style>
	<g id="Layer">
		<g id="Layer">
			<path id="Layer" class="shp0" d="M40 44.25L53.47 44.25C54.3 44.25 54.97 44.92 54.97 45.75L54.97 47.03L38.5 47.03L38.5 45.75C38.5 44.92 39.17 44.25 40 44.25Z" />
			<path id="Layer" class="shp1" d="M38.41 47.03L55.06 47.03C55.59 47.03 56.01 47.45 56.01 47.98C56.01 48.5 55.59 48.93 55.06 48.93L38.41 48.93C37.89 48.93 37.46 48.51 37.46 47.98C37.46 47.45 37.89 47.03 38.41 47.03Z" />
		</g>
		<g id="Layer">
			<path id="Layer" class="shp2" d="M10.67 37.03L40.26 27.47L38.23 22.22L48.14 18.38L53.69 32.73L43.78 36.57L41.75 31.32L13.43 44.17C11.42 45.08 9.06 44.12 8.26 42.06L8.26 42.06C7.47 40.01 8.57 37.71 10.67 37.03Z" />
			<path id="Layer" class="shp1" d="M55.89 33.73C56.23 34.61 55.79 35.61 54.91 35.95L45.05 39.77C44.17 40.11 43.17 39.67 42.83 38.79C42.49 37.91 42.93 36.91 43.81 36.57L53.67 32.75C54.56 32.4 55.55 32.84 55.89 33.73Z" />
			<path id="Layer" class="shp1" d="M49.1 16.18C49.44 17.06 49 18.06 48.12 18.4L38.26 22.22C37.38 22.56 36.38 22.12 36.04 21.24C35.7 20.36 36.14 19.36 37.02 19.02L46.88 15.2C47.76 14.85 48.76 15.29 49.1 16.18Z" />
		</g>
	</g>
</svg>