<?xml version="1.0" encoding="utf-8"?>
<!-- Generator: Adobe Illustrator 21.1.0, SVG Export Plug-In . SVG Version: 6.00 Build 0)  -->
<svg version="1.1" id="Layer_1" xmlns="http://www.w3.org/2000/svg" xmlns:xlink="http://www.w3.org/1999/xlink" x="0px" y="0px"
	 viewBox="0 0 512 512" style="enable-background:new 0 0 512 512;" xml:space="preserve">
<style type="text/css">
	.st0{fill:#F2F2F2;}
	.st1{fill:#CECCCC;}
	.st2{fill:#CCB595;stroke:#A3937F;stroke-miterlimit:10;}
	.st3{fill:#B7A287;}
	.st4{fill:#87ACD6;}
</style>
<g>
	<path class="st0" d="M512,256c0,60.4-21.4,118.9-60.2,165c-9.2,10.9-19.4,21.1-30.2,30.3C375.4,490.4,316.6,512,256,512
		s-119.4-21.6-165.5-60.7c-10.8-9.2-21-19.4-30.2-30.3C21.4,374.9,0,316.4,0,256c0-68.4,26.6-132.7,75-181S187.6,0,256,0
		s132.7,26.6,181,75S512,187.6,512,256z"/>
	<path class="st1" d="M512,256c0,60.4-21.4,118.9-60.2,165c-9.2,10.9-19.4,21.1-30.2,30.3C375.4,490.4,316.6,512,256,512
		c-5.4,0-10.7-0.2-16-0.5c54.9-3.4,107.5-24.5,149.5-60.2c10.8-9.2,21-19.4,30.2-30.3c38.9-46.1,60.2-104.6,60.2-165
		c0-68.4-26.6-132.7-75-181C360.5,30.4,302.4,4.3,240,0.5c5.3-0.3,10.6-0.5,16-0.5c68.4,0,132.7,26.6,181,75S512,187.6,512,256
		L512,256z"/>
</g>
<g>
	<path class="st2" d="M346,271.8l40.5-57.5c3.5-5,8.7-8.5,14.6-9.8l2.6-0.6c9.1-2,18.5,2.3,22.8,10.7c3.4,6.6,3.2,14.4-0.5,20.8
		l-47.1,80.8c-1.8,3.2-4.1,6.1-6.7,8.7c-5.2,5.3-11.9,9.1-19.1,10.9l-8.3,2.2c-1.1,0.3-2.3,0.6-3.5,0.7l-88.5,15.8
		c-6.4,1.2-12.7,2.6-19,4.5l-24.1,7.3l-62.6-42c0,0,19.8-61.5,81.3-55.7c11.5,1.1,23.1,0.6,34.6-1.5l58.1-10.4
		c5.8-1.1,11.9,0.3,16.7,3.8c8.9,6.5,11.7,18.6,6.4,28.3l-0.2,0.4c-3.2,5.8-8.8,9.9-15.4,11.1l-50.6,9"/>
	<path class="st3" d="M167.6,432.2l15.8,10.4l30.3-44.6c5.9-8.7,3.6-20.7-5.1-26.6l-68.3-46.1c-8.8-5.9-20.8-3.6-26.6,5.2
		l-30.7,45.7l35.5,24.4"/>
	<path class="st4" d="M349.3,134.2c1.8,29.9-21,55.5-50.8,57.3s-55.6-20.9-57.4-50.8c-0.6-9.8,1.5-19.1,5.5-27.3
		c1.9-3.7,4.1-7.3,6.8-10.5c1.8-2.1,3.7-4.2,5.8-6c8.8-7.8,20-12.8,32.7-13.5C321.8,81.6,347.5,104.4,349.3,134.2z"/>
</g>
</svg>
