<?xml version="1.0" encoding="utf-8"?>
<!-- Generator: Adobe Illustrator 21.1.0, SVG Export Plug-In . SVG Version: 6.00 Build 0)  -->
<svg version="1.1" id="Layer_1" xmlns="http://www.w3.org/2000/svg" xmlns:xlink="http://www.w3.org/1999/xlink" x="0px" y="0px"
	 viewBox="0 0 512 512" style="enable-background:new 0 0 512 512;" xml:space="preserve">
<style type="text/css">
	.st0{fill:#F2F2F2;}
	.st1{fill:#CECCCC;}
	.st2{fill:#DFC8A8;}
	.st3{fill:#9ABFE9;}
	.st4{fill:#CCB595;}
	.st5{fill:#87ACD6;}
</style>
<g>
	<path class="st0" d="M512,256c0,60.4-21.4,118.9-60.2,165c-9.2,10.9-19.4,21.1-30.2,30.3C375.4,490.4,316.6,512,256,512
		s-119.4-21.6-165.5-60.7c-10.8-9.2-21-19.4-30.2-30.3C21.4,374.9,0,316.4,0,256c0-68.4,26.6-132.7,75-181S187.6,0,256,0
		s132.7,26.6,181,75S512,187.6,512,256z"/>
	<path class="st1" d="M512,256c0,60.4-21.4,118.9-60.2,165c-9.2,10.9-19.4,21.1-30.2,30.3C375.4,490.4,316.6,512,256,512
		c-5.4,0-10.7-0.2-16-0.5c54.9-3.4,107.5-24.5,149.5-60.2c10.8-9.2,21-19.4,30.2-30.3c38.9-46.1,60.2-104.6,60.2-165
		c0-68.4-26.6-132.7-75-181C360.5,30.4,302.4,4.3,240,0.5c5.3-0.3,10.6-0.5,16-0.5c68.4,0,132.7,26.6,181,75S512,187.6,512,256
		L512,256z"/>
</g>
<g>
	<path class="st2" d="M300.7,67.8c-37.8-28.6-86.3-35.4-129.9-18.1c-1.9,0.7-3.7,1.5-5.5,2.3c-42.9,19.1-72.1,58.4-78.1,105.5
		c-6.2,48,12.7,94.6,50.4,124.7l158.1,126.1c0.1,0.1,0.1,0.1,0.2,0.1c6.8,5.2,15.5,6.4,23.4,3s13.2-10.4,14.2-18.8
		c0-0.1,0.1-0.2,0-0.3l20.6-201.2C359.3,143.1,339.3,97,300.7,67.8z"/>
	<ellipse transform="matrix(0.922 -0.3872 0.3872 0.922 -46.5334 96.1397)" class="st3" cx="215.4" cy="163.6" rx="55" ry="55"/>
	<path class="st4" d="M300.7,67.8c-37.8-28.6-86.3-35.4-129.9-18.1c-1.9,0.7-3.7,1.5-5.5,2.3c-3.8,1.7-7.4,3.5-11,5.5
		c40.4-11.9,83.8-4,118.3,22c38.6,29.2,58.7,75.3,53.7,123.3l-20.6,201.2c0,0.1-0.1,0.2,0,0.3c-0.4,2.7-1.2,5.4-2.3,7.8
		c5.2,1.7,11,1.4,16.3-0.8c7.9-3.3,13.2-10.4,14.2-18.8c0-0.1,0.1-0.2,0-0.3l20.6-201.2C359.3,143.1,339.3,97,300.7,67.8z"/>
	<path class="st5" d="M266,142.2c11.8,28-1.4,60.3-29.4,72c-4.9,2.1-9.9,3.3-14.9,3.9c18.6-15,25.9-41,16.2-64.1
		c-9.7-23.1-33.4-36.1-57-33.3c3.9-3.2,8.4-5.9,13.2-7.9C222,101.1,254.3,114.3,266,142.2z"/>
</g>
</svg>
