<?xml version="1.0" encoding="utf-8"?>
<!-- Generator: Adobe Illustrator 21.1.0, SVG Export Plug-In . SVG Version: 6.00 Build 0)  -->
<svg version="1.1" id="Layer_1" xmlns="http://www.w3.org/2000/svg" xmlns:xlink="http://www.w3.org/1999/xlink" x="0px" y="0px"
	 viewBox="0 0 512 512" style="enable-background:new 0 0 512 512;" xml:space="preserve">
<style type="text/css">
	.st0{fill:#F2F2F2;}
	.st1{fill:#CECCCC;}
	.st2{fill:#B7A287;}
	.st3{fill:#CCB595;}
	.st4{fill:#D6F4FC;}
	.st5{fill:#87ACD6;}
	.st6{fill:#9ABFE9;}
	.st7{fill:#FFFFFF;}
	.st8{fill:none;}
	.st9{font-family:'BebasNeue-Regular';}
	.st10{font-size:98.8063px;}
</style>
<g>
	<path class="st0" d="M512,256c0,60.4-21.4,118.9-60.2,165c-9.2,10.9-19.4,21.1-30.2,30.3C375.4,490.4,316.6,512,256,512
		s-119.4-21.6-165.5-60.7c-10.8-9.2-21-19.4-30.2-30.3C21.4,374.9,0,316.4,0,256c0-68.4,26.6-132.7,75-181S187.6,0,256,0
		s132.7,26.6,181,75S512,187.6,512,256z"/>
	<path class="st1" d="M512,256c0,60.4-21.4,118.9-60.2,165c-9.2,10.9-19.4,21.1-30.2,30.3C375.4,490.4,316.6,512,256,512
		c-5.4,0-10.7-0.2-16-0.5c54.9-3.4,107.5-24.5,149.5-60.2c10.8-9.2,21-19.4,30.2-30.3c38.9-46.1,60.2-104.6,60.2-165
		c0-68.4-26.6-132.7-75-181C360.5,30.4,302.4,4.3,240,0.5c5.3-0.3,10.6-0.5,16-0.5c68.4,0,132.7,26.6,181,75S512,187.6,512,256
		L512,256z"/>
</g>
<g>
	<path class="st2" d="M393.1,268.8l21.1,63.7c5.5,16.6-3.5,34.4-20,39.9l-192.6,63.8c-16.6,5.5-34.4-3.5-39.9-20L80.5,171.3
		c-2.8-8.3,1.7-17.2,10-20L253,97.4c8.3-2.8,17.2,1.7,20,10l7.5,22.7c-0.2,0.2-0.4,0.7-0.4,1.4c0.3,0,0.6,0,0.9,0l47.1,142.2
		l45-14.9C381.4,256.1,390.4,260.5,393.1,268.8z"/>
	<path class="st3" d="M273,107.4c2.9,8.8-1.3,18.3-9.8,22.1c-79.2,34.9-120.4,125-92.6,209l22.5,67.8c6.8,20.4-24.2,31.8-31.3,10.1
		L80.4,171.3c-2.8-8.3,1.7-17.2,10-20l162.5-53.9C261.2,94.7,270.2,99.1,273,107.4z"/>
	<path class="st4" d="M280.5,130.2l0.5,1.4c-0.3,0-0.6,0-0.9,0C280.1,130.8,280.2,130.3,280.5,130.2z"/>
	<path class="st3" d="M393.1,268.8l21.1,63.7c5.5,16.6-3.5,34.4-20,39.9c-16.6,5.5-34.4-3.5-39.9-20l-26.1-78.7l45-14.9
		C381.4,256.1,390.4,260.5,393.1,268.8z"/>
	<path class="st5" d="M344.7,175.2c11.1,33.5-7,69.7-40.6,80.8c-45.3,15-90.4-23.2-83.3-70.2c3.6-23,19.6-43.2,43.1-51
		C297.4,123.7,333.6,141.7,344.7,175.2z"/>
	<path class="st6" d="M293.7,132.1c10.5,1.5,12,16.2,2,19.8c-32.2,11.7-49.3,46.1-39.5,78.5c3,10.2-9.5,17.8-17,10.4
		c-14.5-14.3-21.3-34.9-18.2-55C226.6,148.5,261,127.2,293.7,132.1z"/>
	<path class="st7" d="M157.1,272.9c-0.9-2.7,0.6-5.7,3.3-6.7l42.5-14.1c2.7-0.9,5.7,0.6,6.7,3.3c0.9,2.7-0.6,5.7-3.3,6.7l-42.5,14.1
		C161,277.1,158,275.6,157.1,272.9z M138.4,216.6c-0.9-2.7,0.6-5.7,3.3-6.7l42.5-14.1c2.7-0.9,5.7,0.6,6.7,3.3
		c0.9,2.7-0.6,5.7-3.3,6.7L145.1,220C142.3,220.9,139.3,219.4,138.4,216.6z M290.8,291c0.9,2.7-0.6,5.7-3.3,6.7l-105.1,34.8
		c-2.7,0.9-5.7-0.6-6.7-3.3s0.6-5.7,3.3-6.7l105.1-34.8C286.9,286.7,289.9,288.2,290.8,291z M308.2,343.5c0.9,2.7-0.6,5.7-3.3,6.7
		L199.8,385c-2.7,0.9-5.7-0.6-6.7-3.3s0.6-5.7,3.3-6.7l105.1-34.8C304.3,339.3,307.3,340.8,308.2,343.5z"/>
	
		<rect x="266.7" y="154.3" transform="matrix(0.9492 -0.3147 0.3147 0.9492 -46.5475 105.4069)" class="st8" width="72.9" height="85.2"/>
	<text transform="matrix(0.9492 -0.3147 0.3147 0.9492 276.9769 233.5456)" class="st7 st9 st10">€</text>
</g>
</svg>
