<?xml version="1.0" encoding="utf-8"?>
<!-- Generator: Adobe Illustrator 21.1.0, SVG Export Plug-In . SVG Version: 6.00 Build 0)  -->
<svg version="1.1" id="Layer_1" xmlns="http://www.w3.org/2000/svg" xmlns:xlink="http://www.w3.org/1999/xlink" x="0px" y="0px"
	 viewBox="0 0 512 512" style="enable-background:new 0 0 512 512;" xml:space="preserve">
<style type="text/css">
	.st0{fill:#F2F2F2;}
	.st1{fill:#CECCCC;}
	.st2{fill:#CCB595;}
	.st3{fill:#B7A287;}
</style>
<g>
	<path class="st0" d="M512,256c0,60.4-21.4,118.9-60.2,165c-9.2,10.9-19.4,21.1-30.2,30.3C375.4,490.4,316.6,512,256,512
		s-119.4-21.6-165.5-60.7c-10.8-9.2-21-19.4-30.2-30.3C21.4,374.9,0,316.4,0,256c0-68.4,26.6-132.7,75-181S187.6,0,256,0
		s132.7,26.6,181,75S512,187.6,512,256z"/>
	<path class="st1" d="M512,256c0,60.4-21.4,118.9-60.2,165c-9.2,10.9-19.4,21.1-30.2,30.3C375.4,490.4,316.6,512,256,512
		c-5.4,0-10.7-0.2-16-0.5c54.9-3.4,107.5-24.5,149.5-60.2c10.8-9.2,21-19.4,30.2-30.3c38.9-46.1,60.2-104.6,60.2-165
		c0-68.4-26.6-132.7-75-181C360.5,30.4,302.4,4.3,240,0.5c5.3-0.3,10.6-0.5,16-0.5c68.4,0,132.7,26.6,181,75S512,187.6,512,256
		L512,256z"/>
</g>
<g>
	<path class="st2" d="M393.2,166.4c-1.9-3-5.3-4.7-8.9-4.4l-99.1,9.8l-64.3-76.1c-2.3-2.7-5.9-3.9-9.3-3c-3.4,0.9-6.1,3.6-6.8,7.1
		l-21.4,97.3l-92.3,37.6c-3.3,1.3-5.5,4.4-5.7,8c-0.2,3.6,1.6,6.9,4.6,8.7l86,50.3l7.2,99.4c0.2,3.6,2.5,6.6,5.8,7.9
		c3.3,1.3,7.1,0.7,9.7-1.7l74.5-66.2l96.8,23.9c1.5,0.4,3,0.4,4.4,0c1.9-0.5,3.6-1.5,4.9-3c2.3-2.7,2.8-6.5,1.4-9.7l-39.9-91.3
		l52.6-84.7C395.1,173.2,395.1,169.4,393.2,166.4z"/>
	<path class="st3" d="M393.2,166.4c-1.9-3-5.3-4.7-8.9-4.4l-99.1,9.8l-64.3-76.1c-2.3-2.7-5.9-3.9-9.3-3l61.5,248.5l96.8,23.9
		c1.5,0.4,3,0.4,4.4,0c1.9-0.5,3.6-1.5,4.9-3c2.3-2.7,2.8-6.5,1.4-9.7L340.7,261l52.6-84.7C395.1,173.2,395.1,169.4,393.2,166.4z"/>
</g>
</svg>
