<svg xmlns="http://www.w3.org/2000/svg" viewBox="0 0 512 512" width="512" height="512">
	<style>
		tspan { white-space:pre }
		.shp0 { fill: none } 
		.shp1 { fill: #b79d81;stroke: #83715e;stroke-opacity:0.95;stroke-width: 3 } 
		.shp2 { fill: #52a9c9 } 
		.shp3 { fill: #85c4db } 
	</style>
	<g id="Layer">
		<path id="canvas_background" class="shp0" d="M-1 -1L581 -1L581 401L-1 401L-1 -1Z" />
	</g>
	<g id="Layer">
		<path id="svg_3" fill-rule="evenodd" class="shp1" d="M126.51 274.75C138.39 286.12 166.96 334.32 175.04 353.19C178.41 361.05 179.3 366.56 177.8 369.95C174.84 375.2 142.55 390.64 125.2 398.94C114.11 404.25 104.53 408.83 99.59 411.75C94.42 414.78 89.72 415.71 87.92 415.04C87.64 414.94 87.46 414.83 87.28 414.3C82.95 401.48 83.71 383.95 84.51 365.39C85.29 347.22 86.1 328.44 82.1 312.41C81.21 308.86 80.07 305.95 79.07 303.38C77.2 298.59 76.43 296.36 77.62 293.85C77.63 293.84 77.63 293.83 77.63 293.82C79.81 289.16 103.83 272.4 113.47 267.59C114.07 267.29 114.65 267.01 115.43 267.01C117.21 267.01 120.02 268.5 126.51 274.75ZM139.98 357.53C139.42 352.35 134.69 348.64 129.41 349.2C124.23 349.77 120.41 354.49 121.08 359.78C121.64 364.95 126.37 368.66 131.54 368.1C136.83 367.54 140.54 362.81 139.98 357.53Z" />
		<path id="svg_4" class="shp1" d="M463.93 255.23C457.19 249.81 444.39 247.81 435.91 249.01C411.64 252.34 375.17 271.82 354.73 288.22C353.56 290.49 352.08 292.23 350.65 293.52C344.67 298.89 334.95 300.91 323.54 300.91C304.91 300.91 281.78 295.51 263.15 290.51C261.84 290.15 260.72 289.85 259.84 289.62C257.33 288.97 255.83 286.42 256.48 283.91C257.13 281.41 259.68 279.9 262.19 280.55C263.1 280.79 264.24 281.1 265.59 281.46C274.37 283.82 290.72 288.21 307.1 290.37C330.91 293.51 340.52 290.02 344.38 286.55C345.18 285.84 346.06 284.85 346.69 283.37C346.7 283.35 346.7 283.33 346.71 283.31C346.8 283.12 346.87 282.91 346.94 282.71C346.99 282.57 347.03 282.44 347.07 282.3C347.08 282.28 347.09 282.24 347.1 282.21C347.56 280.57 347.72 278.44 347.27 275.6C346.46 270.41 342.7 265.47 336.1 260.87C305.35 239.41 230.05 234.33 207.6 238.84C207.6 238.84 207.59 238.84 207.58 238.84C187.95 242.69 160.74 258.65 140.87 270.3C139.6 271.05 138.35 271.78 137.13 272.49C137.55 272.99 137.98 273.52 138.42 274.06C138.43 274.08 138.44 274.09 138.46 274.11C143.78 280.73 150.2 290.24 156.57 300.44C156.58 300.45 156.59 300.47 156.6 300.48C157.11 301.31 157.63 302.14 158.15 302.98C158.17 303.02 158.2 303.06 158.22 303.11C159.24 304.76 160.26 306.42 161.26 308.09C161.3 308.16 161.35 308.23 161.39 308.3C161.87 309.1 162.35 309.9 162.82 310.7C162.88 310.8 162.94 310.9 163 311C163.48 311.81 163.96 312.61 164.43 313.41C164.45 313.44 164.47 313.47 164.48 313.5C164.93 314.27 165.38 315.04 165.83 315.8C165.9 315.92 165.97 316.04 166.04 316.16C166.47 316.91 166.9 317.65 167.33 318.4C167.42 318.55 167.51 318.71 167.6 318.87C168.03 319.61 168.45 320.34 168.87 321.08C168.93 321.19 168.99 321.3 169.06 321.41C169.43 322.07 169.8 322.73 170.17 323.38C170.26 323.53 170.34 323.69 170.43 323.84C170.82 324.53 171.2 325.21 171.58 325.89C171.68 326.08 171.79 326.27 171.89 326.46C172.27 327.13 172.64 327.8 173 328.46C173.09 328.62 173.17 328.78 173.26 328.93C173.57 329.5 173.88 330.07 174.18 330.63C174.27 330.8 174.36 330.96 174.45 331.13C174.8 331.76 175.13 332.38 175.46 333C175.57 333.19 175.67 333.38 175.77 333.57C176.1 334.18 176.42 334.79 176.74 335.39C176.82 335.54 176.89 335.68 176.97 335.83C177.25 336.36 177.52 336.88 177.78 337.39C177.86 337.53 177.93 337.67 178 337.81C178.3 338.39 178.59 338.95 178.88 339.51C178.96 339.67 179.04 339.84 179.13 340C179.41 340.55 179.68 341.09 179.94 341.62C180.01 341.75 180.07 341.88 180.14 342C180.38 342.49 180.61 342.96 180.84 343.43C180.88 343.52 180.93 343.61 180.97 343.7C181.22 344.21 181.46 344.71 181.69 345.2C181.73 345.26 181.76 345.34 181.79 345.4C200.55 338.51 215.34 336.01 227.99 336.01C244.21 336.01 256.93 340.11 270.06 344.34C285.34 349.27 301.15 354.38 324.21 352.63C339.98 351.46 376.21 335.73 410.35 315.22C451.23 290.67 469.26 271.32 468.71 263.72C468.46 260.4 466.9 257.62 463.93 255.23L463.93 255.23Z" />
		<path id="svg_9" class="shp2" d="M357.12 215.9C328.61 215.9 305.57 193.57 305.57 165.94C305.57 138.31 328.61 115.98 357.12 115.98C385.62 115.98 408.66 138.31 408.66 165.94C408.66 193.57 385.62 215.9 357.12 215.9Z" />
		<path id="svg_10" class="shp3" d="M352.36 215.11C325.17 215.11 303.19 193.13 303.19 165.94C303.19 138.75 325.17 116.77 352.36 116.77C379.55 116.77 401.53 138.75 401.53 165.94C401.53 193.13 379.55 215.11 352.36 215.11Z" />
	</g>
</svg>