<?xml version="1.0" encoding="utf-8"?>
<!-- Generator: Adobe Illustrator 21.1.0, SVG Export Plug-In . SVG Version: 6.00 Build 0)  -->
<svg version="1.1" id="Layer_1" xmlns="http://www.w3.org/2000/svg" xmlns:xlink="http://www.w3.org/1999/xlink" x="0px" y="0px"
	 viewBox="0 0 512 512" style="enable-background:new 0 0 512 512;" xml:space="preserve">
<style type="text/css">
	.st0{fill:#F2F2F2;}
	.st1{fill:#CECCCC;}
	.st2{fill:#DFC8A8;}
	.st3{fill:#BBA68A;}
	.st4{fill:#CCB595;}
</style>
<g>
	<path class="st0" d="M512,256c0,60.4-21.4,118.9-60.2,165c-9.2,10.9-19.4,21.1-30.2,30.3C375.4,490.4,316.6,512,256,512
		s-119.4-21.6-165.5-60.7c-10.8-9.2-21-19.4-30.2-30.3C21.4,374.9,0,316.4,0,256c0-68.4,26.6-132.7,75-181S187.6,0,256,0
		s132.7,26.6,181,75S512,187.6,512,256z"/>
	<path class="st1" d="M512,256c0,60.4-21.4,118.9-60.2,165c-9.2,10.9-19.4,21.1-30.2,30.3C375.4,490.4,316.6,512,256,512
		c-5.4,0-10.7-0.2-16-0.5c54.9-3.4,107.5-24.5,149.5-60.2c10.8-9.2,21-19.4,30.2-30.3c38.9-46.1,60.2-104.6,60.2-165
		c0-68.4-26.6-132.7-75-181C360.5,30.4,302.4,4.3,240,0.5c5.3-0.3,10.6-0.5,16-0.5c68.4,0,132.7,26.6,181,75S512,187.6,512,256
		L512,256z"/>
</g>
<g>
	<path class="st2" d="M461.5,353.8c3.6,13.2,5.4,26.8,5.5,40.4c0,3.1-1,6.3-2.9,8.9c-34.9,47.6-86.3,82.6-144.8,98.5
		c-58.5,15.9-120.5,11.7-174.7-11.7c-3-1.3-5.5-3.5-7-6.2c-6.8-11.8-12.1-24.4-15.7-37.6c-11.5-42.3-4.9-86.9,18.5-125.5
		s60.9-66.9,105.6-79.7l0.2-0.1l2.2-0.6l2.2-0.6l0.2-0.1c45-11.6,91.7-6.1,131.4,15.3C421.8,276.4,450,311.5,461.5,353.8z"/>
	<path class="st3" d="M461.5,353.8c3.6,13.2,5.4,26.8,5.5,40.4c0,3.1-1,6.3-2.9,8.9c-34.9,47.6-86.3,82.6-144.8,98.5
		c-5.2,1.4-10.4,2.6-15.6,3.7c52.1-17.5,97.7-50.4,129.5-93.9c1.9-2.6,3-5.7,2.9-8.9c-0.1-13.6-1.9-27.2-5.5-40.4
		c-11.5-42.3-39.7-77.4-79.4-98.9c-35.8-19.4-77.3-25.7-118.2-18.2c4.2-1.5,8.5-2.9,12.9-4.2l0.2-0.1l2.2-0.6l2.2-0.6l0.2-0.1
		c45-11.6,91.7-6.1,131.4,15.3C421.8,276.4,450,311.5,461.5,353.8z"/>
	<ellipse transform="matrix(0.965 -0.2622 0.2622 0.965 -39.6173 67.3062)" class="st4" cx="232.4" cy="182.1" rx="96" ry="90.3"/>
	<path class="st3" d="M325.1,156.9c13.1,48-17.9,98.4-69,112.3c-5.3,1.4-10.5,2.4-15.8,3c41.9-18.8,65.6-63.8,53.9-106.9
		c-11.7-43.1-54.9-69.9-100.5-64.9c4.8-2.2,9.9-4,15.1-5.4C259.8,81.1,312,108.9,325.1,156.9z"/>
</g>
</svg>
