<?xml version="1.0" encoding="utf-8"?>
<!-- Generator: Adobe Illustrator 21.1.0, SVG Export Plug-In . SVG Version: 6.00 Build 0)  -->
<svg version="1.1" id="Layer_1" xmlns="http://www.w3.org/2000/svg" xmlns:xlink="http://www.w3.org/1999/xlink" x="0px" y="0px"
	 viewBox="0 0 512 512" style="enable-background:new 0 0 512 512;" xml:space="preserve">
<style type="text/css">
	.st0{fill:#F2F2F2;}
	.st1{fill:#CECCCC;}
	.st2{fill:#DFC8A8;}
	.st3{fill:#CCB595;}
	.st4{fill:#B7A287;}
</style>
<g>
	<path class="st0" d="M512,256c0,60.4-21.4,118.9-60.2,165c-9.2,10.9-19.4,21.1-30.2,30.3C375.4,490.4,316.6,512,256,512
		s-119.4-21.6-165.5-60.7c-10.8-9.2-21-19.4-30.2-30.3C21.4,374.9,0,316.4,0,256c0-68.4,26.6-132.7,75-181S187.6,0,256,0
		s132.7,26.6,181,75S512,187.6,512,256z"/>
	<path class="st1" d="M512,256c0,60.4-21.4,118.9-60.2,165c-9.2,10.9-19.4,21.1-30.2,30.3C375.4,490.4,316.6,512,256,512
		c-5.4,0-10.7-0.2-16-0.5c54.9-3.4,107.5-24.5,149.5-60.2c10.8-9.2,21-19.4,30.2-30.3c38.9-46.1,60.2-104.6,60.2-165
		c0-68.4-26.6-132.7-75-181C360.5,30.4,302.4,4.3,240,0.5c5.3-0.3,10.6-0.5,16-0.5c68.4,0,132.7,26.6,181,75S512,187.6,512,256
		L512,256z"/>
</g>
<g>
	<path class="st2" d="M387.2,323.8l-93.3,13.4c-15.5,2.2-26.2,16.6-24,32l4,28l149.4-21.6l-4-28C417,332.2,402.7,321.5,387.2,323.8z
		"/>
	<path class="st3" d="M419.2,347.8l4,28l-74.7,10.8l-8.1-56l46.7-6.7C402.7,321.5,417,332.2,419.2,347.8z"/>
	<path class="st2" d="M163.4,400.8c-10.7,17.1-33.8,21.6-50.2,9.4c-16.4-12.2-18.6-35.6-5.2-50.7l86.4-97.5l27.8-2.8l5.2,3.9
		l5.2,27.4L163.4,400.8z"/>
	<path class="st3" d="M232.6,290.4l-69.2,110.4c-10.7,17.1-33.8,21.6-50.2,9.4L224.8,261l2.6,1.9L232.6,290.4z"/>
	<polygon class="st2" points="232.6,290.4 194.5,261.9 232.3,219.5 262.5,242.1 	"/>
	<polygon class="st3" points="232.6,290.4 213.5,276.1 247.4,230.8 262.5,242.1 	"/>
	
		<rect x="213.4" y="115.7" transform="matrix(0.599 -0.8008 0.8008 0.599 -52.3038 296.6425)" class="st2" width="113.2" height="169.8"/>
	
		<rect x="247.4" y="183.5" transform="matrix(0.599 -0.8008 0.8008 0.599 -59.0427 334.0489)" class="st3" width="113.2" height="84.9"/>
	
		<rect x="126.6" y="130.9" transform="matrix(0.599 -0.8008 0.8008 0.599 -38.8629 221.8638)" class="st3" width="150.9" height="37.7"/>
	
		<rect x="262.5" y="232.6" transform="matrix(0.599 -0.8008 0.8008 0.599 -65.8342 371.4835)" class="st4" width="150.9" height="37.7"/>
</g>
</svg>
