<svg xmlns="http://www.w3.org/2000/svg" viewBox="0 0 32 32" width="32" height="32">
	<style>
		tspan { white-space:pre }
		.shp0 { fill: #b79d81;stroke: #83715e;stroke-opacity:0.95 } 
	</style>
	<path id="Layer" class="shp0" d="M16 15C14.03 15 12.08 15.39 10.26 16.14C8.44 16.9 6.79 18 5.39 19.39C4 20.79 2.9 22.44 2.14 24.26C1.39 26.08 1 28.03 1 30C1 30.13 1.03 30.26 1.08 30.38C1.13 30.5 1.2 30.61 1.29 30.71C1.39 30.8 1.5 30.87 1.62 30.92C1.74 30.97 1.87 31 2 31L30 31C30.13 31 30.26 30.97 30.38 30.92C30.5 30.87 30.61 30.8 30.71 30.71C30.8 30.61 30.87 30.5 30.92 30.38C30.97 30.26 31 30.13 31 30C31 28.03 30.61 26.08 29.86 24.26C29.1 22.44 28 20.79 26.61 19.39C25.21 18 23.56 16.9 21.74 16.14C19.92 15.39 17.97 15 16 15L16 15Z" />
	<path id="Layer" class="shp0" d="M16 17C11.58 17 8 13.42 8 9C8 4.58 11.58 1 16 1C20.42 1 24 4.58 24 9C24 13.42 20.42 17 16 17Z" />
</svg>